<svg xmlns="http://www.w3.org/2000/svg" xmlns:xlink="http://www.w3.org/1999/xlink" id="svg" version="1.1" width="400" height="400" viewBox="0, 0, 400,400"><path xmlns="http://www.w3.org/2000/svg" id="path1" d="M183.275 9.637 C 181.129 9.814,180.761 10.358,182.266 11.133 C 182.683 11.348,183.575 11.919,184.248 12.402 C 184.921 12.886,185.589 13.281,185.732 13.281 C 185.875 13.281,186.771 13.817,187.723 14.472 C 189.743 15.862,189.984 16.797,188.323 16.797 C 186.305 16.797,166.152 21.653,164.863 22.449 C 164.739 22.526,159.036 24.279,152.189 26.346 C 132.689 32.232,126.805 34.341,124.580 36.244 C 124.149 36.612,122.705 37.922,121.371 39.153 C 120.037 40.385,117.891 42.357,116.602 43.537 C 110.151 49.440,106.855 52.667,106.010 53.906 C 105.498 54.658,104.202 56.328,103.131 57.617 C 102.059 58.906,100.290 61.807,99.199 64.063 C 95.594 71.515,93.028 76.486,92.003 77.999 C 90.487 80.240,89.133 82.092,88.054 83.398 C 79.204 94.125,77.036 99.958,78.326 109.570 C 78.967 114.341,79.398 120.809,80.292 139.063 C 81.045 154.419,81.419 158.958,82.652 167.684 C 83.763 175.541,84.698 180.513,86.561 188.477 C 87.690 193.304,87.687 193.408,86.321 195.121 C 80.965 201.840,80.620 217.003,85.392 235.990 C 89.213 251.194,93.759 258.450,100.918 260.772 C 103.579 261.635,103.360 261.179,104.098 267.383 C 105.292 277.419,109.693 300.383,111.546 306.247 C 112.865 310.420,114.163 312.236,120.324 318.526 C 126.227 324.552,126.415 324.897,124.512 326.220 C 113.604 333.801,100.464 349.851,94.279 363.147 L 92.805 366.317 85.562 369.274 C 72.087 374.777,50.595 383.642,49.023 384.346 C 48.164 384.731,45.176 385.979,42.383 387.118 C 39.590 388.258,36.250 389.667,34.961 390.250 C 33.672 390.833,29.980 392.406,26.758 393.745 C 23.535 395.084,20.020 396.576,18.945 397.060 C 17.871 397.544,16.377 398.171,15.625 398.453 C 11.332 400.067,3.325 400.000,201.172 400.000 C 359.264 400.000,389.503 399.915,388.856 399.474 C 388.433 399.185,383.604 397.147,378.125 394.946 C 369.122 391.328,344.835 381.554,316.048 369.963 C 310.157 367.591,305.207 365.513,305.048 365.345 C 304.888 365.177,303.578 362.754,302.137 359.961 C 298.676 353.256,293.225 345.047,289.844 341.451 C 286.391 337.778,280.221 331.520,279.469 330.929 C 270.644 323.986,271.026 325.083,275.850 320.522 C 281.282 315.387,284.654 311.393,286.105 308.378 C 288.605 303.182,293.320 280.871,294.728 267.578 C 295.361 261.603,295.191 261.883,298.633 261.138 C 307.676 259.179,316.152 236.554,316.194 214.258 L 316.211 205.273 314.553 200.453 C 313.640 197.802,312.608 195.030,312.258 194.292 C 311.649 193.009,311.673 192.732,312.826 187.785 C 318.007 165.565,318.814 112.104,314.233 94.531 C 311.073 82.406,301.541 72.327,290.039 68.946 C 285.255 67.540,285.541 67.826,284.347 63.249 C 283.003 58.093,281.251 53.534,279.493 50.615 C 278.741 49.365,278.125 48.215,278.125 48.059 C 278.125 47.433,273.837 41.475,272.038 39.602 C 270.981 38.502,269.697 37.039,269.185 36.350 C 268.672 35.662,267.617 34.665,266.841 34.135 C 266.065 33.606,264.199 32.206,262.695 31.026 C 254.199 24.356,224.460 13.914,205.367 10.896 C 197.942 9.723,188.646 9.193,183.275 9.637 " stroke="none" fill="#c08749" fill-rule="evenodd"/>

<g xmlns="http://www.w3.org/2000/svg" id="svgg"><path id="path1" d="M183.275 9.664 C 181.128 9.813,180.755 10.355,182.266 11.133 C 182.683 11.348,183.575 11.919,184.248 12.402 C 184.921 12.886,185.589 13.281,185.732 13.281 C 185.875 13.281,186.771 13.817,187.723 14.472 C 189.743 15.862,189.984 16.797,188.323 16.797 C 186.305 16.797,166.152 21.653,164.863 22.449 C 164.739 22.526,159.036 24.279,152.189 26.346 C 132.689 32.232,126.805 34.341,124.580 36.244 C 124.149 36.612,122.768 37.881,121.511 39.063 C 120.254 40.244,118.591 41.712,117.816 42.324 C 117.041 42.936,116.411 43.639,116.418 43.886 C 116.424 44.134,116.960 43.753,117.608 43.040 C 118.256 42.327,118.980 41.808,119.216 41.887 C 119.453 41.966,118.881 42.637,117.945 43.379 C 117.008 44.120,116.188 44.677,116.120 44.617 C 115.362 43.940,104.238 55.259,104.592 56.348 C 104.645 56.509,104.524 56.597,104.324 56.543 C 103.835 56.412,101.923 59.010,102.190 59.443 C 102.307 59.631,102.200 59.737,101.954 59.678 C 101.457 59.559,100.241 61.766,95.909 70.653 C 94.299 73.955,93.094 76.839,93.231 77.061 C 93.371 77.288,93.291 77.347,93.046 77.196 C 92.547 76.888,91.286 79.047,91.715 79.475 C 91.867 79.628,91.750 79.694,91.454 79.622 C 91.159 79.551,90.280 80.389,89.501 81.485 C 88.723 82.580,87.778 83.779,87.402 84.149 C 86.757 84.783,86.554 85.325,86.682 86.064 C 86.713 86.241,86.567 86.280,86.357 86.151 C 85.897 85.866,85.067 87.281,85.463 87.677 C 85.617 87.830,85.479 87.897,85.156 87.826 C 84.800 87.746,84.591 87.957,84.622 88.364 C 84.650 88.731,84.475 88.995,84.231 88.950 C 83.988 88.904,83.812 89.168,83.841 89.535 C 83.869 89.903,83.693 90.167,83.450 90.121 C 83.207 90.076,83.031 90.340,83.060 90.707 C 83.088 91.075,82.937 91.339,82.723 91.293 C 82.194 91.181,78.620 98.196,78.043 100.482 C 77.675 101.939,77.685 103.349,78.091 107.123 C 78.375 109.758,78.820 114.023,79.079 116.602 C 79.339 119.180,79.646 120.850,79.762 120.313 C 79.944 119.466,79.979 119.508,80.025 120.629 C 80.062 121.517,79.937 121.834,79.626 121.642 C 79.309 121.446,79.249 121.643,79.425 122.302 C 79.564 122.819,79.707 124.648,79.744 126.367 C 79.805 129.267,79.830 129.351,80.078 127.539 C 80.338 125.643,80.348 125.669,80.407 128.441 C 80.452 130.534,80.347 131.221,80.012 131.014 C 79.700 130.821,79.638 130.948,79.816 131.413 C 79.960 131.788,80.101 133.443,80.130 135.091 C 80.170 137.438,80.243 137.790,80.469 136.719 L 80.757 135.352 80.808 137.035 C 80.844 138.220,80.726 138.635,80.407 138.439 C 80.090 138.243,80.030 138.440,80.207 139.099 C 80.345 139.616,80.481 141.270,80.510 142.773 C 80.549 144.864,80.631 145.232,80.859 144.336 L 81.158 143.164 81.204 144.596 C 81.229 145.384,81.118 146.087,80.957 146.159 C 80.796 146.230,80.724 147.504,80.798 148.988 C 80.886 150.764,81.051 151.499,81.280 151.137 C 81.547 150.715,81.630 150.784,81.635 151.432 C 81.638 151.898,81.496 152.337,81.319 152.409 C 80.876 152.589,81.430 158.983,82.622 167.455 C 83.764 175.578,84.801 181.086,86.579 188.477 C 86.940 189.980,87.252 191.855,87.271 192.643 C 87.295 193.670,87.431 193.970,87.752 193.703 C 87.997 193.499,89.099 193.226,90.199 193.095 C 93.403 192.716,94.064 193.756,96.463 202.955 C 98.822 211.997,100.540 217.579,100.951 217.532 C 101.908 217.425,102.264 217.620,102.457 218.359 C 102.569 218.789,102.963 219.141,103.332 219.141 C 103.912 219.141,103.930 219.052,103.466 218.482 C 102.996 217.904,103.015 217.854,103.613 218.079 C 104.671 218.475,105.527 217.987,105.259 217.141 C 105.130 216.735,105.212 216.406,105.442 216.406 C 105.672 216.406,105.859 216.611,105.859 216.862 C 105.859 217.113,105.949 217.228,106.059 217.118 C 106.169 217.009,105.988 216.152,105.657 215.215 C 105.327 214.278,105.067 213.152,105.081 212.713 C 105.095 212.273,105.089 208.135,105.068 203.516 C 105.022 193.402,105.649 189.103,108.618 179.189 C 109.697 175.584,110.458 172.438,110.308 172.196 C 110.159 171.954,110.361 171.519,110.757 171.230 C 111.341 170.803,111.363 170.703,110.871 170.703 C 110.435 170.703,110.317 170.429,110.451 169.727 C 110.554 169.189,110.792 168.750,110.980 168.750 C 111.168 168.750,111.261 168.199,111.188 167.526 C 111.084 166.582,111.313 166.055,112.185 165.221 C 112.969 164.471,113.161 164.077,112.811 163.936 C 112.400 163.772,112.401 163.728,112.816 163.703 C 113.097 163.686,113.227 163.510,113.105 163.313 C 112.983 163.115,113.175 162.662,113.531 162.306 C 114.106 161.731,114.184 160.143,114.233 147.920 C 114.309 128.813,116.216 123.121,125.938 112.976 C 134.948 103.573,139.335 102.957,159.961 108.199 C 184.596 114.459,194.829 114.271,211.408 107.252 C 214.782 105.824,218.825 104.401,220.392 104.091 C 227.412 102.701,245.084 102.999,254.588 104.668 C 261.704 105.917,262.625 105.973,265.230 105.305 C 268.751 104.403,268.787 104.417,271.735 107.715 C 275.777 112.238,276.686 113.515,279.054 117.989 C 283.802 126.960,284.029 128.138,284.358 145.508 L 284.631 159.961 286.704 166.211 C 293.209 185.823,293.345 186.494,293.699 200.781 C 293.916 209.546,293.867 212.163,293.467 213.086 C 292.832 214.551,290.208 225.495,290.437 225.724 C 290.530 225.816,290.962 225.061,291.397 224.045 L 292.189 222.197 293.390 223.208 C 294.051 223.764,294.999 224.321,295.496 224.446 C 296.275 224.642,296.454 225.034,296.780 227.278 C 297.159 229.880,297.160 229.879,297.213 225.304 C 297.258 221.408,297.467 219.981,298.617 215.734 C 299.361 212.988,300.580 207.926,301.327 204.484 C 303.426 194.816,305.296 192.031,308.796 193.362 C 310.058 193.842,310.547 193.853,310.547 193.402 C 310.547 193.210,310.127 192.948,309.613 192.819 C 309.100 192.690,308.571 192.300,308.437 191.952 C 308.258 191.487,308.360 191.383,308.821 191.560 C 309.166 191.692,309.859 191.903,310.362 192.030 C 310.902 192.165,311.196 192.468,311.080 192.770 C 310.972 193.051,311.072 193.396,311.301 193.538 C 311.538 193.685,311.721 193.490,311.723 193.089 C 311.726 192.701,312.252 190.186,312.893 187.500 C 314.181 182.103,315.441 173.965,315.826 168.555 C 315.964 166.621,316.170 164.709,316.283 164.307 C 316.417 163.834,316.337 163.669,316.057 163.841 C 315.820 163.988,315.625 165.065,315.625 166.234 C 315.625 167.403,315.473 168.359,315.288 168.359 C 314.923 168.359,315.133 161.509,315.527 160.547 C 315.672 160.192,315.871 160.577,316.031 161.523 L 316.295 163.086 316.351 161.262 C 316.381 160.259,316.508 159.117,316.633 158.723 C 316.836 158.084,316.790 158.091,316.201 158.789 C 315.531 159.581,315.511 158.647,316.070 152.930 C 316.113 152.500,316.264 153.203,316.406 154.492 C 316.655 156.736,316.668 156.684,316.731 153.255 C 316.767 151.285,316.918 149.351,317.065 148.958 C 317.285 148.373,317.231 148.325,316.772 148.697 C 316.287 149.091,316.211 147.590,316.211 137.564 C 316.211 127.949,316.303 125.996,316.747 126.090 C 317.098 126.165,317.199 125.985,317.040 125.570 C 316.906 125.221,316.769 122.885,316.736 120.378 C 316.689 116.898,316.611 116.282,316.406 117.773 C 316.259 118.848,316.106 119.375,316.068 118.945 C 316.029 118.516,315.890 117.214,315.760 116.052 C 315.547 114.154,315.592 113.966,316.204 114.201 C 316.717 114.398,316.825 114.309,316.645 113.840 C 316.514 113.497,316.383 112.309,316.355 111.199 C 316.307 109.307,316.285 109.266,316.016 110.547 C 315.736 111.874,315.726 111.859,315.676 110.036 C 315.648 109.001,315.784 108.255,315.978 108.375 C 316.346 108.603,316.322 108.181,315.608 101.855 C 314.670 93.547,309.220 79.943,307.304 81.127 C 307.088 81.261,307.017 81.198,307.148 80.987 C 307.454 80.491,302.984 76.053,302.582 76.454 C 302.415 76.621,302.337 76.582,302.409 76.366 C 302.608 75.769,299.929 73.381,299.321 73.614 C 299.028 73.727,298.890 73.653,299.016 73.450 C 299.317 72.963,296.980 71.764,296.413 72.115 C 296.150 72.277,296.081 72.211,296.241 71.952 C 296.572 71.417,294.908 70.527,291.263 69.287 C 288.140 68.225,288.154 68.228,288.477 68.750 C 288.609 68.965,288.551 69.141,288.346 69.141 C 288.142 69.141,287.873 68.877,287.749 68.555 C 287.626 68.232,287.189 67.969,286.779 67.969 C 285.700 67.969,285.346 67.343,284.568 64.063 C 283.590 59.943,281.789 54.903,280.310 52.148 C 276.170 44.438,274.356 41.666,273.710 42.065 C 273.494 42.199,273.429 42.127,273.565 41.906 C 273.702 41.685,272.982 40.626,271.966 39.553 C 270.949 38.480,269.697 37.039,269.185 36.350 C 268.672 35.662,267.617 34.665,266.841 34.135 C 266.065 33.606,264.199 32.206,262.695 31.026 C 257.055 26.599,233.583 17.249,218.555 13.443 C 217.266 13.117,215.881 12.752,215.478 12.633 C 215.004 12.492,214.840 12.568,215.013 12.849 C 215.167 13.097,215.011 13.281,214.648 13.281 C 214.301 13.281,214.122 13.111,214.251 12.902 C 214.380 12.694,213.994 12.414,213.395 12.280 C 212.795 12.146,211.975 11.946,211.572 11.836 C 211.101 11.707,210.935 11.789,211.107 12.068 C 211.260 12.316,211.105 12.500,210.742 12.500 C 210.395 12.500,210.219 12.324,210.352 12.109 C 210.484 11.895,210.421 11.719,210.211 11.719 C 210.001 11.719,209.523 11.601,209.148 11.457 C 208.683 11.279,208.555 11.341,208.748 11.652 C 208.919 11.929,208.782 12.109,208.398 12.109 C 208.051 12.109,207.875 11.934,208.008 11.719 C 208.141 11.504,208.077 11.328,207.868 11.328 C 207.658 11.328,207.179 11.210,206.804 11.066 C 206.339 10.888,206.212 10.950,206.404 11.262 C 206.571 11.532,206.451 11.719,206.110 11.719 C 205.793 11.719,205.475 11.566,205.404 11.380 C 205.332 11.193,204.856 10.911,204.346 10.752 C 203.708 10.554,203.501 10.599,203.685 10.896 C 203.838 11.144,203.683 11.328,203.320 11.328 C 202.973 11.328,202.787 11.168,202.908 10.973 C 203.028 10.778,201.940 10.436,200.489 10.214 C 196.467 9.597,194.185 9.443,194.059 9.778 C 193.852 10.332,185.729 10.416,185.840 9.863 C 185.894 9.595,185.806 9.408,185.645 9.447 C 185.483 9.487,184.417 9.584,183.275 9.664 M183.761 10.751 C 184.882 11.599,184.368 11.672,182.813 10.886 C 181.822 10.384,181.661 10.192,182.227 10.187 C 182.656 10.184,183.347 10.437,183.761 10.751 M185.938 12.184 C 185.938 12.697,185.050 12.376,184.855 11.792 C 184.760 11.506,184.938 11.419,185.319 11.565 C 185.659 11.696,185.938 11.974,185.938 12.184 M269.330 37.441 C 269.226 37.545,269.097 37.556,269.043 37.465 C 268.989 37.375,268.418 36.686,267.774 35.936 L 266.603 34.570 268.061 35.911 C 268.863 36.648,269.434 37.337,269.330 37.441 M274.998 45.953 C 275.187 46.198,276.079 47.916,276.982 49.772 C 277.884 51.627,278.774 53.239,278.960 53.353 C 279.145 53.468,279.291 53.947,279.283 54.418 C 279.270 55.218,279.205 55.198,278.280 54.102 C 277.417 53.079,274.609 47.702,274.609 47.072 C 274.609 46.946,274.258 46.465,273.828 46.004 C 273.398 45.543,273.047 44.866,273.047 44.499 C 273.047 44.133,272.783 43.732,272.461 43.609 C 272.139 43.485,271.880 43.159,271.886 42.883 C 271.894 42.468,273.642 44.192,274.998 45.953 M110.547 50.391 C 108.635 52.417,106.956 53.961,106.816 53.821 C 106.601 53.606,113.723 46.424,113.945 46.633 C 113.988 46.673,112.459 48.364,110.547 50.391 M100.195 63.672 C 99.806 64.536,99.399 65.154,99.292 65.047 C 99.184 64.940,99.415 64.145,99.805 63.281 C 100.194 62.417,100.601 61.799,100.708 61.906 C 100.816 62.014,100.585 62.808,100.195 63.672 M309.224 86.133 C 311.665 91.289,309.457 89.835,306.702 84.473 C 305.651 82.428,305.469 82.028,305.469 81.765 C 305.469 81.001,308.419 84.433,309.224 86.133 M316.960 138.086 C 316.960 142.168,317.018 143.785,317.088 141.679 C 317.159 139.573,317.158 136.233,317.088 134.257 C 317.017 132.281,316.959 134.004,316.960 138.086 M314.465 176.855 C 314.008 180.009,313.531 182.684,313.405 182.799 C 312.957 183.208,313.996 173.723,314.731 170.703 C 315.376 168.052,315.221 171.642,314.465 176.855 M84.097 171.484 C 84.210 171.913,84.142 172.363,83.948 172.484 C 83.753 172.604,83.594 172.253,83.594 171.703 C 83.594 170.506,83.816 170.409,84.097 171.484 M84.956 176.502 C 84.608 176.850,84.413 176.356,84.203 174.595 L 83.995 172.852 84.571 174.581 C 84.888 175.533,85.061 176.397,84.956 176.502 M85.932 180.957 C 85.935 181.118,85.762 181.250,85.547 181.250 C 85.332 181.250,85.159 180.854,85.162 180.371 C 85.168 179.533,85.914 180.101,85.932 180.957 M86.713 184.473 C 86.716 184.634,86.543 184.766,86.328 184.766 C 86.113 184.766,85.940 184.370,85.943 183.887 C 85.949 183.048,86.695 183.616,86.713 184.473 M312.895 185.527 C 312.289 188.056,311.698 188.472,312.184 186.028 C 312.667 183.595,312.862 183.044,313.139 183.321 C 313.266 183.448,313.156 184.441,312.895 185.527 M87.710 188.770 C 87.879 189.455,87.819 189.844,87.542 189.844 C 87.304 189.844,87.107 189.624,87.104 189.355 C 87.101 189.087,86.989 188.428,86.856 187.891 C 86.686 187.208,86.738 187.032,87.029 187.305 C 87.257 187.520,87.564 188.179,87.710 188.770 M311.719 190.625 C 311.719 191.055,311.543 191.406,311.328 191.406 C 311.113 191.406,310.938 191.055,310.938 190.625 C 310.938 190.195,311.113 189.844,311.328 189.844 C 311.543 189.844,311.719 190.195,311.719 190.625 M84.375 198.047 C 83.937 198.906,83.666 199.609,83.773 199.609 C 83.881 199.609,84.327 198.906,84.766 198.047 C 85.204 197.188,85.475 196.484,85.367 196.484 C 85.260 196.484,84.813 197.188,84.375 198.047 M92.749 254.425 C 93.351 255.214,93.922 255.859,94.018 255.859 C 94.290 255.859,92.599 253.574,92.098 253.265 C 91.855 253.115,92.147 253.637,92.749 254.425 M98.828 259.961 C 99.365 260.268,99.980 260.519,100.195 260.519 C 100.410 260.519,100.146 260.268,99.609 259.961 C 99.072 259.654,98.457 259.403,98.242 259.403 C 98.027 259.403,98.291 259.654,98.828 259.961 M294.775 263.492 C 294.641 263.841,294.546 264.420,294.565 264.778 C 294.583 265.136,294.753 264.911,294.943 264.277 C 295.311 263.045,295.181 262.434,294.775 263.492 M103.754 264.258 C 104.075 265.694,104.299 266.006,104.291 265.007 C 104.288 264.595,104.106 263.994,103.888 263.672 C 103.599 263.244,103.563 263.402,103.754 264.258 M108.055 291.044 C 108.193 291.780,108.445 292.536,108.615 292.724 C 108.785 292.911,108.777 292.414,108.598 291.618 C 108.179 289.760,107.724 289.280,108.055 291.044 M109.618 298.633 C 109.757 299.277,110.026 300.068,110.214 300.391 C 110.434 300.766,110.466 300.555,110.304 299.805 C 110.165 299.160,109.896 298.369,109.708 298.047 C 109.488 297.672,109.456 297.883,109.618 298.633 M287.109 305.161 C 287.109 305.278,286.843 306.010,286.518 306.788 C 286.193 307.566,286.015 308.203,286.122 308.203 C 286.432 308.203,287.533 305.371,287.310 305.148 C 287.200 305.038,287.109 305.044,287.109 305.161 M112.120 308.008 C 112.114 308.715,114.344 312.289,115.287 313.083 L 116.211 313.862 115.345 312.877 C 114.869 312.335,113.949 310.930,113.302 309.754 C 112.654 308.579,112.122 307.793,112.120 308.008 M281.641 314.258 C 280.692 315.225,280.003 316.016,280.111 316.016 C 280.218 316.016,281.082 315.225,282.031 314.258 C 282.980 313.291,283.669 312.500,283.561 312.500 C 283.454 312.500,282.589 313.291,281.641 314.258 M120.757 318.945 C 123.472 321.738,125.787 324.287,125.902 324.609 C 126.086 325.126,126.114 325.126,126.141 324.604 C 126.158 324.278,123.843 321.730,120.996 318.940 L 115.820 313.867 120.757 318.945 M274.621 321.278 C 273.026 322.883,271.800 324.248,271.896 324.312 C 271.992 324.375,273.377 323.062,274.973 321.393 C 278.676 317.523,278.431 317.442,274.621 321.278 " stroke="none" fill="#bd8645" fill-rule="evenodd"/><path id="path2" d="M182.813 10.886 C 183.564 11.266,184.255 11.519,184.346 11.449 C 184.681 11.190,182.986 10.181,182.227 10.187 C 181.661 10.192,181.822 10.384,182.813 10.886 M184.855 11.792 C 185.050 12.376,185.938 12.697,185.938 12.184 C 185.938 11.974,185.659 11.696,185.319 11.565 C 184.938 11.419,184.760 11.506,184.855 11.792 M271.886 42.883 C 271.880 43.159,272.139 43.485,272.461 43.609 C 272.783 43.732,273.047 44.133,273.047 44.499 C 273.047 44.866,273.398 45.543,273.828 46.004 C 274.258 46.465,274.609 46.946,274.609 47.072 C 274.609 47.702,277.417 53.079,278.280 54.102 C 279.205 55.198,279.270 55.218,279.283 54.418 C 279.291 53.947,279.145 53.468,278.960 53.353 C 278.774 53.239,277.884 51.627,276.982 49.772 C 275.185 46.077,275.254 46.186,273.276 43.945 C 272.517 43.086,271.891 42.608,271.886 42.883 M305.469 81.765 C 305.469 82.028,305.651 82.428,306.702 84.473 C 309.457 89.835,311.665 91.289,309.224 86.133 C 308.419 84.433,305.469 81.001,305.469 81.765 M315.716 110.547 C 315.716 111.299,315.796 111.606,315.894 111.230 C 315.993 110.854,315.993 110.239,315.894 109.863 C 315.796 109.487,315.716 109.795,315.716 110.547 M315.815 116.699 C 316.178 120.268,316.501 120.388,316.341 116.895 C 316.269 115.338,316.061 114.063,315.879 114.063 C 315.696 114.063,315.667 115.249,315.815 116.699 M79.778 120.703 C 79.778 121.455,79.859 121.763,79.957 121.387 C 80.055 121.011,80.055 120.396,79.957 120.020 C 79.859 119.644,79.778 119.951,79.778 120.703 M80.209 128.516 C 80.209 130.127,80.278 130.786,80.363 129.980 C 80.447 129.175,80.447 127.856,80.363 127.051 C 80.278 126.245,80.209 126.904,80.209 128.516 M316.348 126.074 C 316.208 126.779,316.227 149.137,316.367 148.997 C 316.666 148.699,316.851 134.853,316.653 127.637 C 316.606 125.928,316.492 125.347,316.348 126.074 M80.575 137.109 C 80.575 138.076,80.651 138.472,80.744 137.988 C 80.838 137.505,80.838 136.714,80.744 136.230 C 80.651 135.747,80.575 136.143,80.575 137.109 M316.005 153.027 C 315.999 153.403,315.888 155.029,315.759 156.641 C 315.630 158.252,315.662 159.441,315.829 159.284 C 316.192 158.941,316.595 152.344,316.253 152.344 C 316.122 152.344,316.011 152.651,316.005 153.027 M315.444 160.645 C 315.105 161.699,314.971 168.359,315.288 168.359 C 315.473 168.359,315.636 167.437,315.650 166.309 C 315.664 165.181,315.761 163.335,315.865 162.207 C 316.040 160.316,315.816 159.485,315.444 160.645 M111.875 165.463 C 111.312 166.050,111.097 166.698,111.188 167.534 C 111.262 168.203,111.168 168.750,110.980 168.750 C 110.792 168.750,110.554 169.189,110.451 169.727 C 110.326 170.381,110.440 170.703,110.796 170.703 C 111.089 170.703,111.300 170.571,111.266 170.410 C 111.232 170.249,111.295 169.854,111.407 169.531 C 113.141 164.524,113.190 164.093,111.875 165.463 M314.731 170.703 C 313.996 173.723,312.957 183.208,313.405 182.799 C 313.750 182.484,315.322 171.226,315.133 170.423 C 315.003 169.874,314.919 169.933,314.731 170.703 M83.594 171.703 C 83.594 172.253,83.753 172.604,83.948 172.484 C 84.142 172.363,84.210 171.913,84.097 171.484 C 83.816 170.409,83.594 170.506,83.594 171.703 M84.203 174.595 C 84.413 176.356,84.608 176.850,84.956 176.502 C 85.061 176.397,84.888 175.533,84.571 174.581 L 83.995 172.852 84.203 174.595 M138.741 174.613 C 134.326 175.543,131.112 177.747,126.778 182.814 C 119.510 191.312,119.759 192.823,127.752 188.717 C 135.581 184.697,138.267 184.140,146.814 184.770 C 154.221 185.315,155.980 185.575,170.753 188.303 L 175.100 189.105 176.022 188.238 C 179.360 185.103,179.179 178.489,175.711 176.843 C 171.996 175.080,144.419 173.417,138.741 174.613 M238.867 174.479 C 223.922 175.713,220.457 177.138,220.809 181.904 C 221.259 188.011,223.341 189.325,230.273 187.878 C 242.061 185.419,256.687 183.920,261.133 184.715 C 262.696 184.994,265.554 186.180,269.711 188.272 C 274.858 190.862,276.035 191.320,276.459 190.896 C 277.762 189.593,268.122 178.442,263.773 176.224 C 260.179 174.390,249.232 173.623,238.867 174.479 M85.162 180.371 C 85.159 180.854,85.332 181.250,85.547 181.250 C 86.036 181.250,86.036 180.835,85.547 180.078 C 85.241 179.604,85.167 179.660,85.162 180.371 M85.943 183.887 C 85.940 184.370,86.113 184.766,86.328 184.766 C 86.818 184.766,86.818 184.351,86.328 183.594 C 86.022 183.120,85.948 183.176,85.943 183.887 M312.730 183.635 C 312.276 185.013,311.848 187.857,312.119 187.689 C 312.532 187.434,313.426 183.608,313.139 183.321 C 313.013 183.195,312.828 183.336,312.730 183.635 M86.856 187.891 C 86.989 188.428,87.101 189.087,87.104 189.355 C 87.107 189.624,87.304 189.844,87.542 189.844 C 88.056 189.844,87.662 187.900,87.029 187.305 C 86.738 187.032,86.686 187.208,86.856 187.891 M310.938 190.625 C 310.938 191.055,311.113 191.406,311.328 191.406 C 311.543 191.406,311.719 191.055,311.719 190.625 C 311.719 190.195,311.543 189.844,311.328 189.844 C 311.113 189.844,310.938 190.195,310.938 190.625 M308.454 191.996 C 308.578 192.320,309.100 192.690,309.613 192.819 C 310.127 192.948,310.559 193.254,310.574 193.499 C 310.589 193.745,310.741 193.594,310.912 193.164 C 311.167 192.522,311.006 192.301,310.006 191.924 C 308.359 191.304,308.191 191.311,308.454 191.996 M150.879 195.972 C 151.255 196.071,151.870 196.071,152.246 195.972 C 152.622 195.874,152.314 195.794,151.563 195.794 C 150.811 195.794,150.503 195.874,150.879 195.972 M147.031 197.213 C 146.193 197.828,145.068 198.835,144.531 199.451 C 143.994 200.066,144.399 199.814,145.432 198.890 C 146.464 197.966,147.870 196.966,148.557 196.667 C 149.243 196.369,149.523 196.117,149.180 196.109 C 148.836 196.101,147.869 196.597,147.031 197.213 M241.172 197.591 C 240.334 198.200,239.391 199.035,239.077 199.447 C 238.763 199.858,239.027 199.730,239.663 199.161 C 240.300 198.592,241.436 197.758,242.188 197.307 C 242.939 196.856,243.361 196.487,243.125 196.486 C 242.889 196.485,242.010 196.982,241.172 197.591 M253.309 199.414 C 255.153 201.873,255.391 202.091,254.455 200.465 C 254.046 199.754,253.291 198.787,252.777 198.316 C 252.227 197.813,252.446 198.264,253.309 199.414 M159.497 200.750 C 159.961 201.597,160.400 202.230,160.473 202.158 C 160.662 201.969,159.450 199.702,159.017 199.434 C 158.817 199.311,159.033 199.903,159.497 200.750 M237.230 205.273 C 237.233 206.562,237.306 207.043,237.392 206.341 C 237.479 205.639,237.478 204.584,237.388 203.997 C 237.299 203.410,237.228 203.984,237.230 205.273 M255.590 205.273 C 255.592 206.562,255.665 207.043,255.752 206.341 C 255.839 205.639,255.837 204.584,255.748 203.997 C 255.659 203.410,255.588 203.984,255.590 205.273 M157.989 211.816 L 156.445 213.477 158.105 211.932 C 159.649 210.496,159.945 210.156,159.650 210.156 C 159.586 210.156,158.839 210.903,157.989 211.816 M144.141 210.669 C 144.141 210.736,144.712 211.308,145.410 211.939 L 146.680 213.086 145.532 211.816 C 144.463 210.633,144.141 210.367,144.141 210.669 M151.469 214.729 C 151.955 214.823,152.658 214.819,153.032 214.722 C 153.405 214.624,153.008 214.547,152.148 214.552 C 151.289 214.556,150.983 214.636,151.469 214.729 M105.259 217.141 C 105.527 217.987,104.671 218.475,103.613 218.079 C 103.015 217.854,102.996 217.904,103.466 218.482 C 103.928 219.050,103.913 219.141,103.356 219.141 C 103.001 219.141,102.596 218.833,102.458 218.457 C 101.858 216.832,100.648 217.023,101.164 218.661 C 101.348 219.247,101.609 223.945,101.743 229.102 C 102.031 240.177,102.525 248.671,103.286 255.664 C 103.591 258.457,103.853 261.357,103.870 262.109 C 103.925 264.594,104.733 271.247,105.614 276.466 C 105.713 277.056,105.901 278.392,106.030 279.435 C 106.160 280.478,106.432 281.641,106.635 282.021 C 106.838 282.400,106.916 282.798,106.809 282.905 C 106.701 283.012,106.801 283.870,107.031 284.812 C 107.261 285.753,107.534 286.963,107.638 287.500 C 107.743 288.037,107.880 288.740,107.944 289.063 C 108.008 289.385,108.183 290.088,108.334 290.625 C 108.484 291.162,108.693 292.217,108.799 292.969 C 108.904 293.721,109.072 294.732,109.173 295.216 C 109.274 295.700,109.421 296.508,109.500 297.011 C 109.580 297.514,109.757 298.107,109.894 298.328 C 110.030 298.550,110.242 299.562,110.364 300.578 C 111.141 307.053,113.506 311.182,120.558 318.371 C 123.645 321.519,126.172 324.284,126.172 324.515 C 126.172 324.746,124.686 326.095,122.871 327.513 C 121.055 328.931,119.447 330.289,119.296 330.533 C 119.146 330.776,120.649 329.718,122.636 328.183 C 127.045 324.775,126.952 324.777,130.171 328.027 L 132.781 330.664 133.029 337.500 C 133.413 348.130,134.656 350.617,143.589 358.636 C 147.477 362.126,156.641 368.300,156.641 367.430 C 156.641 367.308,156.069 366.916,155.371 366.559 C 146.981 362.272,135.999 351.800,134.356 346.520 C 133.648 344.245,133.123 331.981,133.709 331.395 C 133.849 331.255,136.561 333.590,139.736 336.583 C 165.960 361.312,164.046 360.377,190.430 361.361 C 215.187 362.285,230.553 360.600,236.976 356.259 C 240.421 353.930,256.297 339.528,261.853 333.691 C 264.888 330.503,264.947 330.593,264.648 337.988 C 264.251 347.820,263.981 348.428,256.802 355.680 C 251.948 360.584,246.370 364.534,238.586 368.581 C 235.947 369.952,233.935 371.078,234.113 371.084 C 236.989 371.172,251.538 361.425,257.510 355.408 C 264.622 348.245,265.226 346.721,265.231 335.924 L 265.234 330.247 267.285 328.293 C 271.309 324.459,270.507 324.504,274.880 327.862 C 285.456 335.984,295.430 348.071,302.008 360.739 C 303.515 363.641,304.832 366.016,304.935 366.016 C 305.410 366.016,299.180 354.574,296.578 350.667 C 291.103 342.450,282.926 333.569,275.488 327.761 C 273.501 326.210,271.875 324.710,271.875 324.428 C 271.875 324.147,273.501 322.379,275.488 320.499 C 283.283 313.125,285.999 309.363,287.718 303.557 C 288.351 301.418,290.928 290.345,291.209 288.557 C 291.317 287.868,291.670 286.009,291.992 284.426 C 292.315 282.843,292.675 280.734,292.792 279.739 C 292.910 278.744,293.098 277.402,293.210 276.758 C 293.470 275.268,293.806 272.997,294.368 268.945 C 294.568 267.500,294.813 264.857,294.965 262.500 C 295.000 261.963,295.184 260.205,295.375 258.594 C 297.273 242.553,297.334 224.907,295.492 224.445 C 294.997 224.321,294.058 223.770,293.407 223.222 L 292.222 222.225 291.057 224.717 C 290.416 226.088,289.430 229.041,288.866 231.280 C 281.041 262.343,275.477 272.374,257.739 287.402 C 253.580 290.926,253.678 290.939,253.403 286.816 C 252.599 274.781,248.125 271.502,225.561 266.418 C 207.626 262.377,192.044 262.608,170.524 267.234 C 150.566 271.525,145.703 275.398,145.703 287.004 C 145.703 290.508,145.597 290.521,141.797 287.474 C 123.734 272.988,117.370 261.468,109.381 228.786 C 107.293 220.246,106.063 216.406,105.414 216.406 C 105.200 216.406,105.130 216.737,105.259 217.141 M205.558 277.729 C 213.067 278.943,223.337 280.023,231.551 280.461 C 239.270 280.873,240.253 281.100,240.952 282.634 C 243.041 287.219,239.406 307.356,235.475 312.973 C 235.068 313.555,232.823 315.183,230.486 316.591 C 218.116 324.045,215.965 323.553,213.132 312.623 C 210.935 304.144,211.505 304.487,199.609 304.508 C 187.436 304.530,187.592 304.442,185.812 312.343 C 183.547 322.396,181.487 323.689,173.909 319.810 C 166.114 315.820,163.693 314.050,162.312 311.328 C 158.859 304.527,156.360 286.971,158.323 283.304 C 159.489 281.127,160.066 280.974,168.164 280.702 C 176.777 280.414,184.444 279.613,192.969 278.114 C 200.525 276.784,199.847 276.805,205.558 277.729 M113.631 335.840 C 105.518 344.130,100.701 350.893,95.100 361.858 L 92.734 366.489 85.332 369.524 C 48.760 384.518,14.138 399.055,13.477 399.695 C 13.262 399.903,13.789 399.778,14.648 399.418 C 15.508 399.058,17.002 398.444,17.969 398.055 C 18.936 397.666,25.176 395.026,31.836 392.189 C 42.667 387.575,61.935 379.578,85.227 370.030 L 93.306 366.719 93.950 365.098 C 97.380 356.461,106.395 343.481,114.406 335.645 C 116.876 333.228,118.724 331.250,118.510 331.250 C 118.297 331.250,116.101 333.315,113.631 335.840 M306.250 366.574 C 306.787 366.864,312.588 369.251,319.141 371.877 C 350.458 384.430,383.936 397.933,386.849 399.187 C 388.735 399.999,390.180 400.287,389.051 399.626 C 388.468 399.285,381.557 396.482,350.781 384.106 C 342.510 380.779,329.029 375.348,320.825 372.037 C 306.917 366.423,303.822 365.263,306.250 366.574 M157.031 367.772 C 157.031 368.033,162.548 370.786,162.722 370.612 C 162.799 370.534,161.551 369.821,159.947 369.027 C 158.343 368.234,157.031 367.669,157.031 367.772 M163.777 371.088 C 164.675 371.664,168.832 373.095,169.031 372.896 C 169.163 372.764,168.139 372.371,163.867 370.911 C 163.160 370.670,163.152 370.686,163.777 371.088 M230.664 372.141 C 228.167 373.184,227.295 373.728,228.906 373.237 C 230.279 372.818,233.871 371.157,233.398 371.160 C 233.184 371.161,231.953 371.602,230.664 372.141 M170.703 373.633 C 171.455 373.922,172.334 374.159,172.656 374.159 C 172.979 374.159,172.627 373.922,171.875 373.633 C 171.123 373.343,170.244 373.106,169.922 373.106 C 169.600 373.106,169.951 373.343,170.703 373.633 M174.972 374.839 C 175.923 375.137,177.330 375.469,178.097 375.577 C 178.864 375.684,178.262 375.427,176.758 375.004 C 173.661 374.135,172.337 374.012,174.972 374.839 M222.656 374.805 C 221.689 375.085,221.250 375.318,221.680 375.322 C 222.109 375.327,223.164 375.099,224.023 374.816 C 226.046 374.149,224.950 374.140,222.656 374.805 M214.551 376.441 C 214.927 376.539,215.542 376.539,215.918 376.441 C 216.294 376.343,215.986 376.263,215.234 376.263 C 214.482 376.263,214.175 376.343,214.551 376.441 M185.352 376.976 C 186.211 377.153,187.441 377.287,188.086 377.272 C 188.965 377.253,188.818 377.168,187.500 376.933 C 185.143 376.514,183.295 376.550,185.352 376.976 M211.816 376.832 C 212.192 376.930,212.808 376.930,213.184 376.832 C 213.560 376.734,213.252 376.653,212.500 376.653 C 211.748 376.653,211.440 376.734,211.816 376.832 M208.496 377.229 C 208.979 377.322,209.771 377.322,210.254 377.229 C 210.737 377.136,210.342 377.060,209.375 377.060 C 208.408 377.060,208.013 377.136,208.496 377.229 M194.043 377.635 C 196.460 377.704,200.415 377.704,202.832 377.635 C 205.249 377.567,203.271 377.511,198.438 377.511 C 193.604 377.511,191.626 377.567,194.043 377.635 " stroke="none" fill="#b58051" fill-rule="evenodd"/><path id="path3" d="M227.658 103.921 C 221.743 104.294,218.065 105.136,212.943 107.288 C 201.031 112.294,199.299 112.764,191.374 113.143 C 182.465 113.569,173.642 112.272,157.617 108.180 C 138.190 103.219,130.651 105.552,121.555 119.336 C 115.527 128.472,115.119 130.200,114.963 147.218 L 114.836 161.037 113.299 165.968 C 106.171 188.842,105.911 190.152,105.825 203.711 L 105.762 213.477 107.352 218.945 C 108.226 221.953,109.395 226.348,109.950 228.711 C 117.062 259.006,123.806 271.719,139.844 285.063 L 144.727 289.126 145.028 286.067 C 146.200 274.194,150.437 270.938,170.313 266.635 C 177.841 265.005,187.317 263.487,192.578 263.068 L 196.289 262.772 192.578 261.530 C 181.845 257.935,182.272 257.422,196.002 257.422 C 214.039 257.422,215.598 257.719,209.931 260.077 C 208.229 260.786,206.133 261.688,205.273 262.081 L 203.711 262.798 205.859 263.011 C 207.041 263.129,210.185 263.416,212.847 263.648 C 224.595 264.676,243.601 270.086,248.868 273.902 C 251.408 275.742,254.297 283.208,254.297 287.932 C 254.297 289.436,254.367 289.412,257.551 286.816 C 267.785 278.475,275.935 267.900,280.655 256.841 C 283.153 250.986,287.766 234.474,291.022 219.727 C 291.687 216.719,292.446 213.818,292.710 213.281 C 293.077 212.537,293.129 209.426,292.932 200.195 C 292.620 185.614,292.715 186.098,286.234 166.211 L 284.070 159.570 283.870 145.898 C 283.575 125.718,281.208 118.702,271.045 107.880 L 268.458 105.125 266.589 105.687 C 263.953 106.481,261.353 106.393,254.272 105.270 C 250.873 104.730,245.137 104.118,241.526 103.908 C 234.416 103.495,234.402 103.495,227.658 103.921 M166.822 174.611 C 178.137 175.899,180.566 177.857,178.720 184.205 C 177.052 189.942,177.087 189.934,164.392 187.745 C 142.529 183.975,138.329 184.137,128.276 189.140 C 118.157 194.175,118.274 190.605,128.574 180.008 C 132.808 175.652,135.426 174.358,141.406 173.662 C 144.568 173.295,160.471 173.889,166.822 174.611 M261.133 174.595 C 264.983 175.842,267.477 177.643,271.357 181.978 C 279.244 190.790,279.361 194.292,271.620 189.853 C 269.756 188.784,266.897 187.334,265.267 186.631 L 262.305 185.352 255.664 185.409 C 247.982 185.475,241.762 186.186,232.158 188.094 C 223.941 189.727,224.228 189.718,222.946 188.379 C 219.279 184.550,219.321 178.294,223.027 176.378 C 227.804 173.907,255.069 172.632,261.133 174.595 M90.093 194.336 C 89.825 195.033,88.281 195.129,88.281 194.448 C 88.281 192.593,84.292 199.339,83.349 202.788 C 82.400 206.259,82.395 218.925,83.340 224.219 C 86.542 242.153,90.975 253.192,96.799 257.735 C 98.482 259.048,102.703 261.099,103.036 260.766 C 103.161 260.641,102.967 257.596,102.603 253.999 C 101.798 246.040,101.178 234.170,101.174 226.648 C 101.172 222.185,101.022 220.622,100.421 218.835 C 99.497 216.086,96.886 207.014,95.506 201.758 C 94.394 197.523,93.214 194.539,92.465 194.063 C 91.674 193.560,90.332 193.715,90.093 194.336 M310.697 194.704 C 310.532 195.133,310.030 195.214,308.593 195.044 C 304.747 194.589,304.098 195.315,302.697 201.634 C 300.640 210.913,299.874 214.094,298.984 217.046 C 298.189 219.685,297.992 221.343,297.821 226.812 C 297.432 239.293,296.518 255.280,296.034 258.093 C 295.767 259.644,295.632 260.996,295.734 261.099 C 296.482 261.847,302.930 258.698,303.463 257.324 C 303.542 257.121,304.116 256.374,304.740 255.664 C 310.614 248.973,315.760 229.800,315.799 214.453 L 315.820 206.055 314.127 201.367 C 313.196 198.789,312.342 196.108,312.229 195.410 C 312.017 194.100,311.092 193.674,310.697 194.704 M156.096 196.667 C 157.204 197.164,158.545 198.157,159.112 198.900 C 166.652 208.785,153.841 220.707,145.104 211.935 C 137.274 204.073,145.898 192.094,156.096 196.667 M251.421 196.973 C 256.245 200.197,257.587 205.936,254.568 210.427 C 248.484 219.474,234.555 213.383,237.097 202.787 C 238.539 196.774,246.369 193.596,251.421 196.973 M196.484 278.157 C 186.573 279.942,175.052 281.250,168.676 281.314 L 162.305 281.379 166.797 281.650 C 169.268 281.799,174.102 282.199,177.539 282.538 C 195.333 284.297,210.447 284.249,224.609 282.390 C 229.939 281.690,238.281 281.370,238.281 281.866 C 238.281 283.174,232.655 288.875,227.734 292.552 C 208.337 307.049,182.087 305.005,165.733 287.725 C 161.752 283.518,160.869 282.170,161.737 281.621 C 162.185 281.338,162.126 281.261,161.461 281.256 C 158.140 281.232,157.376 287.668,159.352 299.023 C 161.505 311.403,162.977 313.493,173.280 318.802 C 181.544 323.061,182.909 322.287,185.348 311.968 C 187.171 304.253,186.807 304.486,198.242 303.707 C 202.101 303.445,208.625 304.091,210.167 304.888 C 211.658 305.660,212.190 306.766,213.407 311.639 C 215.832 321.345,217.561 322.586,224.223 319.406 C 231.344 316.005,234.746 313.434,236.153 310.387 C 238.956 304.316,240.754 295.717,240.794 288.194 C 240.832 281.050,241.232 281.345,230.842 280.864 C 221.673 280.439,206.102 278.702,201.172 277.554 C 200.850 277.479,198.740 277.750,196.484 278.157 M261.933 347.245 C 261.400 347.834,261.310 348.185,261.614 348.489 C 261.918 348.793,262.164 348.674,262.489 348.067 C 263.153 346.827,262.792 346.295,261.933 347.245 " stroke="none" fill="#ebbc8e" fill-rule="evenodd"/><path id="path4" d="M148.550 197.061 C 142.093 199.868,141.212 208.509,146.988 212.380 C 156.123 218.501,165.542 205.791,157.260 198.519 C 155.018 196.551,151.195 195.910,148.550 197.061 M243.454 197.068 C 235.119 200.691,236.196 211.933,245.053 213.750 C 249.186 214.598,253.690 211.777,254.912 207.575 C 256.811 201.042,249.576 194.407,243.454 197.068 M133.804 355.178 C 129.313 364.788,125.545 382.931,127.416 385.938 C 128.173 387.154,128.256 387.766,128.165 391.485 C 128.110 393.784,128.186 396.641,128.335 397.833 L 128.606 400.000 198.620 400.000 L 268.634 400.000 268.885 396.777 C 269.023 395.005,269.137 392.081,269.138 390.280 C 269.140 387.638,269.299 386.750,269.962 385.678 C 271.176 383.713,271.068 382.293,268.992 372.852 C 266.334 360.767,263.354 351.563,262.100 351.563 C 261.939 351.563,260.710 352.749,259.368 354.199 C 230.330 385.569,170.817 386.668,140.707 356.390 C 138.066 353.735,135.813 351.563,135.699 351.563 C 135.586 351.563,134.733 353.189,133.804 355.178 " stroke="none" fill="#201814" fill-rule="evenodd"/><path id="path5" d="M185.938 9.766 C 185.938 10.001,187.565 10.156,190.039 10.156 C 192.513 10.156,194.141 10.001,194.141 9.766 C 194.141 9.530,192.513 9.375,190.039 9.375 C 187.565 9.375,185.938 9.530,185.938 9.766 M267.774 35.936 C 268.418 36.686,268.989 37.375,269.043 37.465 C 269.097 37.556,269.226 37.545,269.330 37.441 C 269.434 37.337,268.863 36.648,268.061 35.911 L 266.603 34.570 267.774 35.936 M117.383 43.285 L 116.211 44.717 117.871 43.419 C 119.633 42.043,119.826 41.780,119.043 41.825 C 118.774 41.841,118.027 42.498,117.383 43.285 M110.215 50.063 C 108.206 51.991,106.664 53.670,106.789 53.794 C 106.914 53.919,108.591 52.373,110.515 50.359 C 114.959 45.707,114.858 45.608,110.215 50.063 M99.858 63.139 C 99.488 63.915,99.270 64.635,99.374 64.739 C 99.478 64.843,99.840 64.267,100.178 63.459 C 100.974 61.552,100.731 61.308,99.858 63.139 M224.566 103.534 C 219.818 103.957,217.485 104.638,210.155 107.740 C 194.816 114.233,184.092 114.331,159.961 108.199 C 139.335 102.957,134.948 103.573,125.938 112.976 C 116.251 123.084,114.307 128.848,114.235 147.670 L 114.183 161.160 112.986 164.857 C 112.328 166.891,110.794 171.895,109.577 175.977 C 108.361 180.059,107.205 183.926,107.009 184.570 C 105.687 188.920,105.031 195.331,105.068 203.516 C 105.090 208.135,105.087 212.189,105.063 212.526 C 105.039 212.862,105.728 215.499,106.595 218.385 C 107.462 221.271,108.876 226.573,109.736 230.166 C 117.083 260.836,124.002 273.204,141.797 287.474 C 145.597 290.521,145.703 290.508,145.703 287.004 C 145.703 275.398,150.566 271.525,170.524 267.234 C 192.044 262.608,207.626 262.377,225.561 266.418 C 248.125 271.502,252.599 274.781,253.403 286.816 C 253.678 290.939,253.580 290.926,257.739 287.402 C 277.006 271.079,281.837 261.404,291.824 219.141 C 292.509 216.240,293.276 213.428,293.528 212.891 C 293.865 212.170,293.911 208.991,293.704 200.781 C 293.343 186.492,293.206 185.813,286.704 166.211 L 284.631 159.961 284.358 145.508 C 284.029 128.138,283.802 126.960,279.054 117.989 C 276.686 113.515,275.777 112.238,271.735 107.715 C 268.787 104.417,268.751 104.403,265.230 105.305 C 262.626 105.972,261.776 105.921,254.492 104.661 C 246.354 103.252,233.262 102.759,224.566 103.534 M241.526 103.908 C 245.137 104.118,250.873 104.730,254.272 105.270 C 261.353 106.393,263.953 106.481,266.589 105.687 L 268.458 105.125 271.045 107.880 C 281.208 118.702,283.575 125.718,283.870 145.898 L 284.070 159.570 286.234 166.211 C 292.715 186.098,292.620 185.614,292.932 200.195 C 293.129 209.426,293.077 212.537,292.710 213.281 C 292.446 213.818,291.687 216.719,291.022 219.727 C 287.766 234.474,283.153 250.986,280.655 256.841 C 275.935 267.900,267.785 278.475,257.551 286.816 C 254.367 289.412,254.297 289.436,254.297 287.932 C 254.297 283.208,251.408 275.742,248.868 273.902 C 243.601 270.086,224.595 264.676,212.847 263.648 C 210.185 263.416,207.041 263.129,205.859 263.011 L 203.711 262.798 205.273 262.081 C 206.133 261.688,208.229 260.786,209.931 260.077 C 215.598 257.719,214.039 257.422,196.002 257.422 C 182.272 257.422,181.845 257.935,192.578 261.530 L 196.289 262.772 192.578 263.068 C 187.317 263.487,177.841 265.005,170.313 266.635 C 150.437 270.938,146.200 274.194,145.028 286.067 L 144.727 289.126 139.844 285.063 C 123.806 271.719,117.062 259.006,109.950 228.711 C 109.395 226.348,108.226 221.953,107.352 218.945 L 105.762 213.477 105.825 203.711 C 105.911 190.152,106.171 188.842,113.299 165.968 L 114.836 161.037 114.963 147.218 C 115.119 130.200,115.527 128.472,121.555 119.336 C 130.651 105.552,138.190 103.219,157.617 108.180 C 173.642 112.272,182.465 113.569,191.374 113.143 C 199.299 112.764,201.031 112.294,212.943 107.288 C 218.065 105.136,221.743 104.294,227.658 103.921 C 234.402 103.495,234.416 103.495,241.526 103.908 M316.016 115.016 C 316.016 115.326,316.191 115.688,316.406 115.820 C 316.621 115.953,316.797 115.700,316.797 115.257 C 316.797 114.815,316.621 114.453,316.406 114.453 C 316.191 114.453,316.016 114.706,316.016 115.016 M316.412 127.441 C 316.416 128.140,316.589 128.975,316.797 129.297 C 317.071 129.721,317.177 129.369,317.182 128.027 C 317.185 127.007,317.012 126.172,316.797 126.172 C 316.582 126.172,316.409 126.743,316.412 127.441 M316.643 146.321 C 316.278 147.273,316.362 148.438,316.797 148.438 C 317.012 148.438,317.188 147.822,317.188 147.070 C 317.188 145.588,317.016 145.351,316.643 146.321 M316.223 157.146 C 316.056 157.531,316.029 157.956,316.163 158.090 C 316.559 158.486,316.879 157.929,316.697 157.159 C 316.535 156.477,316.514 156.476,316.223 157.146 M141.406 173.662 C 135.426 174.358,132.808 175.652,128.574 180.008 C 118.274 190.605,118.157 194.175,128.276 189.140 C 138.329 184.137,142.529 183.975,164.392 187.745 C 175.656 189.687,175.977 189.687,177.224 187.743 C 180.394 182.799,179.533 177.591,175.282 176.003 C 171.590 174.623,147.473 172.957,141.406 173.662 M239.844 173.838 C 233.651 174.291,224.344 175.697,223.027 176.378 C 219.321 178.294,219.279 184.550,222.946 188.379 C 224.228 189.718,223.941 189.727,232.158 188.094 C 241.762 186.186,247.982 185.475,255.664 185.409 L 262.305 185.352 265.267 186.631 C 266.897 187.334,269.756 188.784,271.620 189.853 C 279.361 194.292,279.244 190.790,271.357 181.978 C 264.221 174.005,258.339 172.486,239.844 173.838 M168.145 175.363 C 174.988 176.293,176.679 176.875,177.779 178.680 C 179.156 180.938,178.189 186.203,176.022 188.238 L 175.100 189.105 170.753 188.303 C 142.820 183.145,138.521 183.186,127.752 188.717 C 119.734 192.836,119.425 191.500,126.474 183.185 C 131.061 177.773,134.220 175.566,138.741 174.613 C 141.952 173.937,161.278 174.429,168.145 175.363 M259.881 174.835 C 265.077 176.181,270.942 181.163,275.454 188.063 C 278.020 191.988,277.158 192.019,269.711 188.272 C 265.594 186.200,262.693 184.995,261.170 184.724 C 256.704 183.929,242.019 185.428,230.273 187.878 C 223.341 189.325,221.259 188.011,220.809 181.904 C 220.489 177.575,221.994 176.624,231.055 175.431 C 241.628 174.039,255.688 173.748,259.881 174.835 M88.818 193.238 C 87.765 193.445,86.003 195.630,84.464 198.636 C 80.672 206.045,81.502 222.398,86.563 239.983 C 88.097 245.309,89.262 248.186,91.406 251.934 C 94.208 256.832,99.923 261.328,103.346 261.328 C 104.035 261.328,104.035 261.380,103.334 255.652 C 102.609 249.728,102.046 240.519,101.725 229.297 C 101.475 220.574,101.462 220.471,99.994 215.625 C 99.181 212.939,97.875 208.281,97.093 205.273 C 93.903 193.016,93.433 192.332,88.818 193.238 M306.445 193.519 C 303.726 194.730,303.200 195.858,301.327 204.484 C 300.580 207.926,299.380 212.939,298.660 215.625 C 297.416 220.264,297.338 220.956,297.090 229.492 C 296.804 239.389,295.886 254.522,295.314 258.789 C 295.112 260.293,294.942 261.633,294.935 261.767 C 294.908 262.278,300.084 260.595,301.577 259.607 C 309.210 254.556,316.164 232.963,316.183 214.258 L 316.192 205.664 314.742 201.563 C 313.945 199.307,313.020 196.758,312.688 195.898 C 311.310 192.339,312.491 196.814,314.132 201.367 L 315.820 206.055 315.799 214.453 C 315.760 229.800,310.614 248.973,304.740 255.664 C 304.116 256.374,303.542 257.121,303.463 257.324 C 302.930 258.698,296.482 261.847,295.734 261.099 C 295.632 260.996,295.767 259.644,296.034 258.093 C 296.518 255.280,297.432 239.293,297.821 226.812 C 297.992 221.343,298.189 219.685,298.984 217.046 C 299.874 214.094,300.640 210.913,302.697 201.634 C 304.098 195.315,304.747 194.589,308.593 195.044 C 310.030 195.214,310.532 195.133,310.697 194.704 C 310.816 194.394,311.211 194.141,311.576 194.141 C 312.809 194.141,311.808 193.698,310.293 193.573 C 309.466 193.505,308.525 193.347,308.203 193.223 C 307.881 193.099,307.090 193.232,306.445 193.519 M92.465 194.063 C 93.214 194.539,94.394 197.523,95.506 201.758 C 96.886 207.014,99.497 216.086,100.421 218.835 C 101.022 220.622,101.172 222.185,101.174 226.648 C 101.178 234.170,101.798 246.040,102.603 253.999 C 103.371 261.591,103.471 261.305,100.525 259.928 C 94.193 256.968,90.437 251.369,86.790 239.453 C 86.376 238.097,85.140 233.067,84.392 229.688 C 81.687 217.469,81.954 204.112,85.015 198.492 C 86.166 196.379,88.281 193.760,88.281 194.448 C 88.281 195.129,89.825 195.033,90.093 194.336 C 90.332 193.715,91.674 193.560,92.465 194.063 M145.820 197.838 C 142.463 200.877,141.239 204.682,142.550 208.008 C 142.720 208.439,142.775 207.465,142.672 205.837 C 142.457 202.444,143.119 200.677,145.376 198.612 C 147.393 196.768,147.954 196.408,149.319 196.084 L 150.586 195.783 149.383 195.743 C 148.445 195.712,147.661 196.173,145.820 197.838 M242.717 196.268 C 240.093 197.410,236.729 201.437,237.219 202.850 C 237.309 203.109,237.506 202.770,237.658 202.097 C 239.408 194.305,251.624 194.068,255.130 201.758 C 255.522 202.617,255.846 203.033,255.851 202.681 C 255.910 198.269,247.526 194.176,242.717 196.268 M156.250 197.098 C 158.857 198.573,160.324 200.630,160.920 203.643 C 161.168 204.899,161.252 205.024,161.285 204.187 C 161.382 201.741,159.078 198.118,156.634 196.871 C 154.447 195.756,154.169 195.920,156.250 197.098 M236.830 205.273 C 236.833 206.348,236.909 206.741,236.999 206.147 C 237.089 205.553,237.086 204.674,236.994 204.194 C 236.901 203.713,236.828 204.199,236.830 205.273 M255.971 205.273 C 255.974 206.348,256.050 206.741,256.140 206.147 C 256.229 205.553,256.227 204.674,256.134 204.194 C 256.042 203.713,255.968 204.199,255.971 205.273 M160.996 206.754 C 160.853 209.413,157.194 213.700,154.564 214.291 C 153.880 214.445,153.513 214.638,153.749 214.720 C 155.951 215.487,161.626 209.397,161.214 206.709 L 161.055 205.664 160.996 206.754 M255.134 208.781 C 254.526 210.464,252.500 212.583,250.481 213.649 C 249.679 214.072,249.223 214.426,249.468 214.436 C 251.161 214.502,256.248 209.174,255.793 207.810 C 255.712 207.566,255.416 208.003,255.134 208.781 M142.969 209.310 C 142.969 209.951,147.052 214.063,147.689 214.063 C 147.950 214.063,147.446 213.542,146.567 212.906 C 145.689 212.270,144.520 211.086,143.970 210.276 C 143.419 209.466,142.969 209.031,142.969 209.310 M238.241 210.407 C 239.440 212.835,243.327 214.848,246.680 214.778 L 249.023 214.729 246.260 214.473 C 243.124 214.183,240.569 212.928,238.864 210.840 C 238.294 210.142,238.013 209.947,238.241 210.407 M192.969 278.114 C 184.444 279.613,176.777 280.414,168.164 280.702 C 160.066 280.974,159.489 281.127,158.323 283.304 C 156.360 286.971,158.859 304.527,162.312 311.328 C 163.693 314.050,166.114 315.820,173.909 319.810 C 181.487 323.689,183.547 322.396,185.812 312.343 C 187.592 304.442,187.436 304.530,199.609 304.508 C 211.505 304.487,210.935 304.144,213.132 312.623 C 215.965 323.553,218.116 324.045,230.486 316.591 C 232.823 315.183,235.068 313.555,235.475 312.973 C 239.406 307.356,243.041 287.219,240.952 282.634 C 240.253 281.100,239.270 280.873,231.551 280.461 C 223.337 280.023,213.067 278.943,205.558 277.729 C 199.847 276.805,200.525 276.784,192.969 278.114 M204.102 278.113 C 209.544 279.093,223.420 280.520,230.842 280.864 C 241.232 281.345,240.832 281.050,240.794 288.194 C 240.754 295.717,238.956 304.316,236.153 310.387 C 234.746 313.434,231.344 316.005,224.223 319.406 C 217.561 322.586,215.832 321.345,213.407 311.639 C 212.190 306.766,211.658 305.660,210.167 304.888 C 208.625 304.091,202.101 303.445,198.242 303.707 C 186.807 304.486,187.171 304.253,185.348 311.968 C 182.909 322.287,181.544 323.061,173.280 318.802 C 164.453 314.254,163.297 313.134,161.335 307.227 C 158.168 297.692,157.303 285.188,159.621 282.433 L 160.616 281.250 167.832 281.250 C 175.168 281.250,185.505 280.134,196.484 278.157 C 198.740 277.750,200.850 277.479,201.172 277.554 C 201.494 277.629,202.813 277.881,204.102 278.113 M133.559 331.543 C 132.600 339.750,134.100 347.599,137.399 351.629 C 164.152 384.313,226.360 386.435,256.782 355.700 C 263.984 348.425,264.250 347.824,264.648 337.988 C 264.947 330.593,264.888 330.503,261.853 333.691 C 256.297 339.528,240.421 353.930,236.976 356.259 C 230.553 360.600,215.187 362.285,190.430 361.361 C 164.053 360.377,165.953 361.305,139.794 336.638 C 134.275 331.434,133.633 330.910,133.559 331.543 M262.489 348.067 C 262.164 348.674,261.918 348.793,261.614 348.489 C 261.310 348.185,261.400 347.834,261.933 347.245 C 262.792 346.295,263.153 346.827,262.489 348.067 " stroke="none" fill="#dba880" fill-rule="evenodd"/><path id="path6" d="M161.600 281.713 C 160.889 282.154,162.023 283.805,165.733 287.725 C 182.087 305.005,208.337 307.049,227.734 292.552 C 232.655 288.875,238.281 283.174,238.281 281.866 C 238.281 281.370,229.939 281.690,224.609 282.390 C 210.455 284.248,195.397 284.296,177.539 282.542 C 169.523 281.754,162.152 281.371,161.600 281.713 " stroke="none" fill="#f6f7f7" fill-rule="evenodd"/><path id="path7" d="M148.576 196.659 C 145.981 197.788,142.917 201.279,143.004 203.008 C 143.023 203.395,143.210 203.118,143.418 202.393 C 144.383 199.038,148.871 196.232,152.693 196.594 C 154.035 196.721,154.580 196.674,154.102 196.475 C 152.889 195.969,149.936 196.067,148.576 196.659 M243.164 196.799 C 239.198 198.669,237.485 201.323,237.568 205.469 L 237.618 208.008 237.866 205.064 C 238.724 194.886,251.276 193.353,254.930 202.979 L 255.505 204.492 255.291 203.171 C 254.497 198.265,247.666 194.675,243.164 196.799 M155.664 197.330 C 158.236 198.749,159.983 201.491,160.547 204.996 L 160.907 207.227 160.756 204.989 C 160.517 201.441,157.396 196.824,155.280 196.887 C 155.062 196.893,155.234 197.093,155.664 197.330 M142.669 205.078 C 142.669 205.830,142.749 206.138,142.847 205.762 C 142.946 205.386,142.946 204.771,142.847 204.395 C 142.749 204.019,142.669 204.326,142.669 205.078 M254.800 207.893 C 252.956 214.797,242.633 215.906,238.856 209.606 C 238.329 208.727,237.896 208.202,237.894 208.438 C 237.868 211.542,244.785 215.184,248.674 214.113 C 251.935 213.216,255.827 208.973,255.402 206.780 C 255.331 206.417,255.060 206.918,254.800 207.893 M142.986 207.144 C 142.883 211.359,149.907 215.576,154.503 214.059 C 156.952 213.251,160.548 209.488,160.547 207.734 C 160.546 207.455,160.178 207.970,159.729 208.879 C 156.186 216.036,146.224 215.486,143.552 207.985 C 143.250 207.138,142.995 206.760,142.986 207.144 M268.016 327.576 L 265.234 330.151 265.231 335.876 C 265.226 346.727,264.628 348.239,257.510 355.408 C 226.492 386.653,165.841 385.154,137.597 352.445 C 133.683 347.913,133.368 346.882,133.029 337.500 L 132.781 330.664 130.171 328.027 C 126.962 324.787,127.028 324.786,122.792 328.070 C 111.400 336.902,98.643 353.281,93.950 365.098 L 93.306 366.719 85.227 370.030 C 56.205 381.927,30.267 392.744,15.234 399.218 C 13.485 399.971,13.739 399.975,70.898 399.987 L 128.320 400.000 128.245 393.601 C 128.178 387.913,128.080 387.055,127.367 385.886 C 126.198 383.968,126.343 382.039,128.314 373.287 C 130.723 362.590,134.472 351.563,135.699 351.563 C 135.813 351.563,138.066 353.735,140.707 356.390 C 170.817 386.668,230.330 385.569,259.368 354.199 C 260.710 352.749,261.939 351.563,262.100 351.563 C 263.354 351.563,266.334 360.767,268.992 372.852 C 271.052 382.218,271.171 383.705,270.011 385.632 C 269.358 386.718,269.203 387.914,268.998 393.457 L 268.755 400.000 328.616 399.972 L 388.477 399.945 386.719 399.161 C 384.277 398.072,351.040 384.655,320.117 372.276 C 314.102 369.867,308.170 367.450,306.937 366.904 L 304.694 365.912 301.981 360.687 C 295.444 348.098,285.438 335.970,274.932 327.902 C 270.418 324.435,271.360 324.480,268.016 327.576 " stroke="none" fill="#635d39" fill-rule="evenodd"/></g></svg>
