<svg xmlns="http://www.w3.org/2000/svg" width="400" height="400"><path fill="#d2dce6" d="M0 0h400v400H0z"/><g fill-rule="evenodd"><path fill="#c08749" d="M183.28 9.64c-2.15.17-2.52.72-1.01 1.5.41.2 1.3.78 1.98 1.26.67.49 1.34.88 1.48.88.15 0 1.04.54 2 1.2 2.01 1.38 2.25 2.32.6 2.32-2.03 0-22.18 4.85-23.47 5.65-.12.08-5.82 1.83-12.67 3.9-19.5 5.88-25.38 8-27.61 9.9-.43.36-1.88 1.67-3.2 2.9l-4.78 4.39c-6.45 5.9-9.74 9.13-10.59 10.37a64.4 64.4 0 0 1-2.88 3.7 38.82 38.82 0 0 0-3.93 6.45C95.6 71.51 93.03 76.5 92 78a73.92 73.92 0 0 1-3.95 5.4c-8.85 10.72-11.01 16.56-9.72 26.17.64 4.77 1.07 11.24 1.96 29.5.75 15.35 1.13 19.89 2.36 28.61a207.56 207.56 0 0 0 3.91 20.8c1.13 4.82 1.13 4.93-.24 6.64-5.35 6.72-5.7 21.88-.93 40.87 3.82 15.2 8.37 22.46 15.53 24.78 2.66.87 2.44.4 3.18 6.61 1.2 10.04 5.6 33 7.45 38.87 1.31 4.17 2.61 5.99 8.77 12.28 5.9 6.02 6.1 6.37 4.2 7.69-10.92 7.58-24.06 23.63-30.24 36.93l-1.47 3.17-7.25 2.95a4779.28 4779.28 0 0 0-50.6 20.98c-1.29.58-4.98 2.16-8.2 3.5a443.32 443.32 0 0 0-7.82 3.31 69.63 69.63 0 0 1-3.32 1.4c-4.29 1.6-12.3 1.54 185.55 1.54l187.69-.53a200.6 200.6 0 0 0-10.74-4.52l-62.07-24.99a223.63 223.63 0 0 1-11-4.61c-.16-.17-1.47-2.6-2.91-5.39-3.46-6.7-8.91-14.91-12.3-18.5a289.47 289.47 0 0 0-10.37-10.53c-8.83-6.94-8.44-5.85-3.62-10.4 5.43-5.14 8.8-9.14 10.25-12.15 2.5-5.2 7.22-27.5 8.63-40.8.63-5.98.46-5.7 3.9-6.44 9.05-1.96 17.52-24.59 17.56-46.88l.02-8.99-1.66-4.82a97.51 97.51 0 0 0-2.3-6.16c-.6-1.28-.58-1.56.58-6.5 5.18-22.22 5.98-75.69 1.4-93.26-3.16-12.12-12.69-22.2-24.2-25.58-4.77-1.41-4.49-1.12-5.68-5.7-1.35-5.16-3.1-9.72-4.86-12.63a16.9 16.9 0 0 1-1.37-2.56c0-.63-4.28-6.59-6.08-8.46a44.42 44.42 0 0 1-2.86-3.25 11.78 11.78 0 0 0-2.34-2.22 96.28 96.28 0 0 1-4.14-3.1c-8.5-6.67-38.24-17.12-57.33-20.13-7.43-1.18-16.72-1.7-22.1-1.26"/><path fill="#bd8645" d="M183.28 9.66c-2.15.15-2.53.7-1.01 1.47.41.22 1.3.79 1.98 1.27.67.49 1.34.88 1.48.88.15 0 1.04.54 2 1.2 2.01 1.38 2.25 2.32.6 2.32-2.03 0-22.18 4.85-23.47 5.65-.12.08-5.82 1.83-12.67 3.9-19.5 5.88-25.38 8-27.61 9.9-.43.36-1.81 1.63-3.07 2.81a74.26 74.26 0 0 1-3.7 3.26c-.77.62-1.4 1.32-1.4 1.57.01.24.55-.14 1.2-.85s1.37-1.23 1.6-1.15c.24.08-.33.75-1.27 1.49a7.84 7.84 0 0 1-1.82 1.24c-.76-.68-11.88 10.64-11.53 11.73.05.16-.07.25-.27.2-.48-.14-2.4 2.46-2.13 2.9.12.18.01.29-.24.23-.5-.12-1.7 2.09-6.04 10.97-1.61 3.3-2.82 6.19-2.68 6.41.14.23.06.29-.18.14-.5-.31-1.76 1.85-1.33 2.27.15.16.03.22-.27.15s-1.17.77-1.95 1.86a27.2 27.2 0 0 1-2.1 2.67c-.64.63-.85 1.17-.72 1.91.03.18-.11.22-.32.1-.46-.3-1.3 1.12-.9 1.52.16.15.02.22-.3.15-.36-.08-.57.13-.54.53.03.37-.15.64-.39.59s-.42.22-.39.58c.03.37-.15.64-.39.6-.24-.05-.42.21-.39.58s-.12.63-.34.58c-.53-.1-4.1 6.9-4.68 9.2-.37 1.45-.36 2.86.05 6.63l.99 9.48c.26 2.58.57 4.25.68 3.71.18-.84.22-.8.27.32.03.89-.1 1.2-.4 1.01-.32-.2-.38 0-.2.66a27 27 0 0 1 .31 4.07c.07 2.9.09 2.98.34 1.17.26-1.9.27-1.87.33.9.04 2.1-.06 2.78-.4 2.57-.31-.19-.37-.06-.2.4.15.38.3 2.03.32 3.68.04 2.35.11 2.7.34 1.63l.29-1.37.05 1.69c.03 1.18-.08 1.6-.4 1.4s-.38 0-.2.66c.14.52.27 2.17.3 3.67.04 2.1.12 2.46.35 1.57l.3-1.18.04 1.44c.03.78-.08 1.49-.24 1.56s-.24 1.34-.16 2.83c.09 1.77.25 2.5.48 2.15.27-.42.35-.36.36.3 0 .46-.14.9-.32.97-.44.18.11 6.57 1.3 15.05a200.63 200.63 0 0 0 3.96 21.02c.36 1.5.67 3.38.7 4.16.02 1.03.15 1.33.47 1.06.25-.2 1.35-.47 2.45-.6 3.2-.38 3.86.66 6.26 9.86 2.36 9.04 4.08 14.62 4.5 14.57.95-.1 1.3.09 1.5.83.1.43.5.78.87.78.58 0 .6-.09.14-.66-.47-.58-.45-.63.14-.4 1.06.4 1.92-.1 1.65-.94-.13-.4-.05-.73.18-.73s.42.2.42.45.09.37.2.26c.1-.11-.07-.97-.4-1.9a9.61 9.61 0 0 1-.58-2.5c.02-.45 0-4.59-.01-9.2-.05-10.12.58-14.42 3.55-24.33 1.08-3.6 1.84-6.75 1.69-7-.15-.24.05-.67.45-.96.58-.43.6-.53.11-.53-.44 0-.55-.27-.42-.97.1-.54.34-.98.53-.98s.28-.55.2-1.22c-.1-.95.13-1.47 1-2.3.79-.76.98-1.15.63-1.3-.41-.16-.4-.2 0-.23.29-.01.42-.19.3-.39-.13-.2.06-.65.42-1 .58-.58.65-2.17.7-14.39.08-19.1 1.99-24.8 11.7-34.94 9.02-9.4 13.4-10.02 34.03-4.78 24.64 6.26 34.87 6.07 51.45-.95 3.37-1.43 7.41-2.85 8.98-3.16 7.02-1.39 24.7-1.1 34.2.58 7.11 1.25 8.03 1.3 10.64.64 3.52-.9 3.56-.9 6.5 2.4 4.05 4.53 4.96 5.8 7.32 10.28 4.75 8.97 4.98 10.15 5.3 27.52l.28 14.45 2.07 6.25c6.5 19.61 6.65 20.28 7 34.57.22 8.77.17 11.38-.23 12.3-.64 1.47-3.26 12.41-3.03 12.64.09.1.52-.66.96-1.68l.79-1.84 1.2 1a6.9 6.9 0 0 0 2.1 1.25c.78.2.96.58 1.29 2.83.38 2.6.38 2.6.43-1.98.05-3.9.26-5.32 1.4-9.57.75-2.74 1.97-7.8 2.72-11.25 2.1-9.66 3.97-12.45 7.47-11.12 1.26.48 1.75.5 1.75.04 0-.19-.42-.45-.94-.58-.51-.13-1.04-.52-1.17-.87-.18-.46-.08-.57.38-.39.35.13 1.04.34 1.54.47.54.13.84.44.72.74-.1.28 0 .63.22.77.24.15.42-.05.42-.45 0-.39.53-2.9 1.17-5.59 1.3-5.4 2.55-13.53 2.94-18.94.13-1.94.34-3.85.45-4.25.14-.48.06-.64-.22-.47-.24.15-.44 1.22-.44 2.4 0 1.16-.15 2.12-.33 2.12-.37 0-.16-6.85.24-7.81.14-.36.34.03.5.97l.27 1.57.05-1.83c.03-1 .16-2.14.28-2.54.2-.64.16-.63-.43.07-.67.8-.69-.14-.13-5.86.04-.43.2.27.34 1.56.24 2.25.26 2.2.32-1.24.04-1.97.19-3.9.33-4.3.23-.58.17-.63-.29-.25-.48.4-.56-1.11-.56-11.14 0-9.61.1-11.56.54-11.47.35.08.45-.1.29-.52-.13-.35-.27-2.68-.3-5.2-.05-3.47-.13-4.09-.33-2.6-.15 1.08-.3 1.6-.34 1.17l-.31-2.89c-.21-1.9-.17-2.08.44-1.85.52.2.63.1.44-.36a11.8 11.8 0 0 1-.28-2.64c-.05-1.9-.07-1.93-.34-.65-.28 1.32-.3 1.3-.34-.51-.03-1.04.1-1.79.3-1.67.37.23.34-.19-.37-6.52-.94-8.3-6.39-21.9-8.3-20.72-.22.13-.3.07-.16-.14.3-.5-4.17-4.94-4.57-4.54-.16.17-.24.13-.17-.08.2-.6-2.48-2.99-3.09-2.76-.3.12-.43.04-.3-.16.3-.49-2.04-1.69-2.6-1.34-.27.17-.34.1-.18-.16.33-.53-1.33-1.42-4.98-2.66-3.12-1.07-3.1-1.06-2.78-.54.13.22.07.4-.13.4s-.48-.27-.6-.6c-.12-.32-.56-.58-.97-.58-1.08 0-1.43-.63-2.21-3.9-.98-4.13-2.78-9.17-4.26-11.92-4.14-7.71-5.95-10.48-6.6-10.09-.22.14-.28.07-.14-.15.13-.22-.59-1.28-1.6-2.36a45.76 45.76 0 0 1-2.79-3.2 11.78 11.78 0 0 0-2.34-2.22 96.28 96.28 0 0 1-4.14-3.1c-5.64-4.43-29.12-13.78-44.14-17.59l-3.08-.8c-.48-.15-.64-.07-.47.2.16.26 0 .44-.36.44-.35 0-.53-.17-.4-.38.13-.2-.26-.49-.85-.62-.6-.13-1.43-.33-1.83-.44-.47-.13-.63-.05-.46.23.15.25 0 .43-.37.43-.34 0-.52-.18-.39-.4.13-.2.07-.38-.14-.38-.2 0-.69-.12-1.06-.26-.47-.18-.6-.12-.4.2.17.27.03.45-.35.45-.35 0-.53-.18-.4-.4.14-.2.08-.38-.13-.38s-.7-.12-1.07-.26c-.46-.18-.59-.12-.4.2.17.26.05.45-.29.45-.32 0-.64-.15-.7-.34-.08-.19-.55-.47-1.06-.63-.64-.2-.85-.15-.66.15.15.24 0 .43-.37.43-.35 0-.53-.16-.41-.36s-.97-.53-2.42-.76c-4.02-.61-6.3-.77-6.43-.43-.2.55-8.33.64-8.22.08.05-.26-.03-.45-.2-.41-.16.04-1.22.13-2.36.21m.48 1.1c1.12.84.6.91-.95.13-.99-.5-1.15-.7-.58-.7a3 3 0 0 1 1.53.56m2.18 1.43c0 .52-.89.2-1.09-.39-.09-.28.09-.37.47-.22.34.13.62.4.62.61m83.39 25.26c-.1.1-.23.12-.29.03a36 36 0 0 0-1.27-1.53l-1.17-1.37 1.46 1.34c.8.74 1.37 1.43 1.27 1.53m5.67 8.51a51.3 51.3 0 0 1 1.98 3.82c.9 1.86 1.8 3.47 1.98 3.58.19.12.33.6.32 1.07-.01.8-.07.78-1-.32-.86-1.02-3.67-6.4-3.67-7.03 0-.12-.35-.6-.78-1.07-.43-.46-.78-1.13-.78-1.5s-.27-.77-.59-.9c-.32-.12-.58-.44-.57-.72 0-.41 1.75 1.31 3.1 3.07M110.56 50.4c-1.91 2.03-3.6 3.57-3.73 3.43-.22-.21 6.9-7.4 7.13-7.19a60.5 60.5 0 0 1-3.4 3.76M100.2 63.68c-.38.87-.8 1.48-.9 1.38-.1-.11.13-.9.52-1.77.38-.86.8-1.48.9-1.37.1.1-.13.9-.52 1.76m209.03 22.46c2.44 5.16.24 3.7-2.52-1.66-1.05-2.04-1.23-2.44-1.23-2.7 0-.77 2.95 2.66 3.75 4.36m7.74 51.96c0 4.08.06 5.7.13 3.59.07-2.1.07-5.45 0-7.42-.07-1.98-.13-.26-.13 3.83m-2.5 38.76c-.45 3.16-.93 5.83-1.06 5.95-.44.4.6-9.08 1.33-12.1.65-2.65.5.94-.27 6.16m-230.37-5.4c.11.43.04.88-.15 1-.2.12-.36-.23-.36-.78 0-1.2.23-1.3.5-.22m.87 5.02c-.35.35-.55-.14-.76-1.9l-.2-1.75.57 1.73c.32.95.5 1.82.39 1.92m.97 4.46c0 .16-.17.29-.38.29-.22 0-.4-.4-.39-.88 0-.84.75-.27.77.59m.78 3.51c0 .16-.17.3-.38.3-.22 0-.39-.4-.39-.88 0-.84.75-.27.77.58m226.19 1.06c-.61 2.53-1.2 2.94-.72.5.49-2.44.68-2.99.96-2.7.13.12.02 1.11-.25 2.2m-225.18 3.24c.17.69.1 1.07-.17 1.07-.24 0-.43-.22-.44-.49 0-.26-.11-.92-.24-1.46-.17-.68-.12-.86.17-.58.23.21.53.87.68 1.46m224 1.85c0 .44-.17.79-.38.79-.22 0-.4-.35-.4-.78 0-.44.18-.79.4-.79.21 0 .39.35.39.78m-227.35 7.43c-.43.86-.7 1.56-.6 1.56.11 0 .56-.7 1-1.56.43-.86.7-1.57.6-1.57-.11 0-.56.7-1 1.57m8.38 56.38a7.4 7.4 0 0 0 1.27 1.43c.27 0-1.42-2.29-1.92-2.6-.24-.14.05.38.65 1.17m6.08 5.53c.53.3 1.15.56 1.36.56.22 0-.04-.25-.58-.56a4.3 4.3 0 0 0-1.37-.56c-.21 0 .05.25.59.56m195.94 3.53c-.13.35-.22.93-.2 1.29.01.36.18.13.37-.5.37-1.23.24-1.85-.17-.79m-191.02.77c.33 1.43.55 1.75.54.75a2.8 2.8 0 0 0-.4-1.34c-.3-.43-.33-.27-.14.59m4.3 26.78c.14.74.4 1.5.56 1.68.17.2.17-.3-.01-1.1-.42-1.86-.88-2.34-.54-.58m1.56 7.6c.14.64.4 1.43.6 1.75.21.38.25.17.08-.58a7.58 7.58 0 0 0-.6-1.76c-.21-.38-.24-.17-.08.58m177.49 6.53c0 .12-.27.85-.6 1.63-.32.78-.5 1.41-.39 1.41.31 0 1.41-2.83 1.19-3.05-.11-.11-.2-.1-.2.01M112.12 308c0 .7 2.22 4.28 3.17 5.07l.92.78-.86-.98c-.48-.55-1.4-1.95-2.05-3.13-.65-1.17-1.18-1.96-1.18-1.74m169.52 6.25c-.95.97-1.64 1.76-1.53 1.76.1 0 .97-.8 1.92-1.76.95-.97 1.64-1.76 1.53-1.76-.1 0-.97.8-1.92 1.76m-160.88 4.69c2.71 2.79 5.03 5.34 5.14 5.66.19.52.21.52.24 0 .02-.33-2.3-2.88-5.14-5.67l-5.18-5.07 4.94 5.07m153.86 2.34c-1.6 1.6-2.82 2.97-2.72 3.03s1.48-1.25 3.07-2.92c3.7-3.87 3.46-3.95-.35-.11"/><path fill="#b58051" d="M182.81 10.89c.75.38 1.44.63 1.54.56.33-.26-1.36-1.27-2.12-1.26-.57 0-.4.2.58.7m2.04.9c.2.59 1.09.9 1.09.4 0-.22-.28-.5-.62-.63-.38-.14-.56-.05-.47.23m87.04 31.1c-.01.27.25.6.57.72s.59.52.59.89.35 1.04.78 1.5c.43.47.78.95.78 1.07 0 .63 2.8 6 3.67 7.03.93 1.1.99 1.12 1 .32.01-.47-.13-.95-.32-1.07-.19-.11-1.08-1.72-1.98-3.58-1.8-3.7-1.73-3.58-3.7-5.83-.76-.85-1.39-1.33-1.4-1.06m33.59 38.88c0 .27.18.67 1.23 2.71 2.76 5.36 4.97 6.82 2.52 1.66-.8-1.7-3.75-5.13-3.75-4.36m10.25 28.78c0 .75.08 1.06.17.68a3.17 3.17 0 0 0 0-1.37c-.1-.37-.17-.06-.17.69m.1 6.15c.36 3.57.68 3.69.52.2-.07-1.56-.28-2.84-.46-2.84s-.21 1.19-.06 2.64m-236.04 4c0 .75.08 1.06.18.69a3.17 3.17 0 0 0 0-1.37c-.1-.38-.18-.07-.18.68m.43 7.82c0 1.6.07 2.27.15 1.46.09-.8.09-2.12 0-2.93-.08-.8-.15-.15-.15 1.47m236.14-2.45c-.14.7-.12 23.07.02 22.93.3-.3.48-14.15.28-21.36-.04-1.71-.16-2.3-.3-1.57M80.57 137.11c0 .97.08 1.36.17.88.1-.49.1-1.28 0-1.76-.09-.48-.16-.09-.16.88M316 153.03c-.01.37-.12 2-.25 3.61s-.1 2.8.07 2.64c.36-.34.77-6.94.42-6.94-.13 0-.24.31-.25.69m-.56 7.62c-.33 1.05-.47 7.7-.15 7.7.18 0 .35-.91.36-2.04s.11-2.97.22-4.1c.17-1.9-.05-2.72-.43-1.56m-203.56 4.81a2.4 2.4 0 0 0-.7 2.07c.08.67-.01 1.22-.2 1.22s-.43.44-.53.98c-.12.65-.01.97.35.97.29 0 .5-.13.47-.29a2.2 2.2 0 0 1 .14-.88c1.73-5 1.78-5.44.47-4.07m202.85 5.24c-.73 3.02-1.77 12.5-1.33 12.1.35-.32 1.92-11.57 1.73-12.38-.13-.55-.21-.49-.4.28m-231.14 1c0 .55.16.9.36.78s.26-.57.15-1c-.28-1.07-.5-.97-.5.22m.6 2.9c.21 1.76.4 2.25.76 1.9.1-.1-.07-.97-.39-1.92l-.57-1.73.2 1.75m54.54.01c-4.41.93-7.63 3.14-11.96 8.2-7.27 8.5-7.02 10.01.97 5.9 7.83-4.01 10.52-4.57 19.06-3.94 7.41.54 9.17.8 23.94 3.53l4.35.8.92-.86c3.34-3.14 3.16-9.75-.3-11.4-3.72-1.76-31.3-3.42-36.98-2.23m100.13-.13c-14.95 1.23-18.41 2.66-18.06 7.42.45 6.11 2.53 7.42 9.46 5.98 11.8-2.46 26.42-3.96 30.86-3.16 1.57.27 4.42 1.46 8.58 3.55 5.15 2.6 6.33 3.05 6.75 2.63 1.3-1.3-8.34-12.46-12.69-14.68-3.6-1.83-14.54-2.6-24.9-1.74m-153.7 5.9c-.01.47.16.87.38.87.49 0 .49-.41 0-1.17-.3-.48-.38-.42-.39.3m.78 3.5c0 .49.17.89.39.89.49 0 .49-.42 0-1.18-.3-.47-.38-.41-.39.3m226.79-.25c-.45 1.37-.88 4.22-.61 4.05.41-.26 1.3-4.08 1.02-4.37-.13-.13-.31.02-.41.31M86.86 187.9c.13.54.24 1.2.24 1.47 0 .26.2.48.44.48.52 0 .12-1.94-.51-2.53-.3-.28-.34-.1-.17.58m224.08 2.74c0 .43.17.78.39.78.21 0 .39-.35.39-.78 0-.44-.18-.79-.4-.79-.2 0-.38.35-.38.78m-2.49 1.38c.13.32.65.69 1.16.82.52.13.95.43.96.68.02.25.17.1.34-.34.26-.64.1-.86-.9-1.24-1.65-.62-1.82-.6-1.56.08m-157.57 3.97a3.17 3.17 0 0 0 1.37 0c.37-.1.06-.18-.69-.18s-1.06.08-.68.18m-3.85 1.24c-.84.62-1.96 1.63-2.5 2.24-.54.62-.13.36.9-.56a15.66 15.66 0 0 1 3.13-2.22c.68-.3.96-.55.62-.56-.34 0-1.31.49-2.15 1.1m94.14.38c-.84.61-1.78 1.44-2.1 1.86-.3.4-.04.28.6-.29.63-.57 1.77-1.4 2.52-1.85s1.17-.82.94-.82c-.24 0-1.12.5-1.96 1.1m12.14 1.82c1.84 2.46 2.08 2.68 1.15 1.06a10.7 10.7 0 0 0-1.68-2.15c-.55-.5-.33-.06.53 1.1m-93.81 1.33c.46.85.9 1.48.97 1.4.2-.18-1.02-2.45-1.45-2.72-.2-.12.01.47.48 1.32m77.73 4.52c0 1.3.08 1.77.16 1.07.09-.7.09-1.76 0-2.34-.1-.59-.16-.02-.16 1.27m18.36 0c0 1.3.07 1.77.16 1.07s.09-1.76 0-2.34c-.1-.59-.16-.02-.16 1.27m-97.6 6.55l-1.55 1.66 1.66-1.55c1.55-1.43 1.84-1.77 1.55-1.77-.06 0-.81.74-1.66 1.66m-13.85-1.15c0 .07.57.64 1.27 1.27l1.27 1.15-1.15-1.27c-1.07-1.19-1.39-1.45-1.39-1.15m7.33 4.06c.49.1 1.19.09 1.56 0 .38-.1-.02-.18-.88-.18s-1.17.09-.68.18m-46.21 2.41c.27.85-.59 1.34-1.65.94-.6-.23-.61-.18-.14.4.46.57.44.66-.11.66-.36 0-.76-.3-.9-.68-.6-1.63-1.81-1.44-1.3.2.19.59.45 5.28.58 10.44.3 11.08.79 19.57 1.55 26.56.3 2.8.56 5.7.58 6.45.05 2.48.86 9.14 1.74 14.36.1.59.3 1.92.42 2.96.13 1.05.4 2.21.6 2.6.2.37.29.77.18.88-.1.1 0 .96.22 1.9.23.94.5 2.15.6 2.69l.31 1.56a24.42 24.42 0 0 0 .4 1.56c.14.54.35 1.6.46 2.35.1.75.27 1.76.37 2.25.1.48.25 1.29.33 1.8.08.5.26 1.09.4 1.3.13.23.34 1.24.46 2.26.78 6.47 3.15 10.6 10.2 17.8 3.08 3.14 5.61 5.9 5.61 6.13 0 .24-1.48 1.59-3.3 3a36.8 36.8 0 0 0-3.57 3.02c-.15.25 1.35-.81 3.34-2.35 4.4-3.4 4.31-3.4 7.53-.15l2.61 2.63.25 6.84c.38 10.63 1.63 13.12 10.56 21.14 3.89 3.49 13.05 9.66 13.05 8.79 0-.12-.57-.51-1.27-.87-8.39-4.29-19.37-14.76-21.01-20.04-.71-2.27-1.24-14.54-.65-15.13.14-.13 2.85 2.2 6.03 5.2 26.22 24.72 24.3 23.79 50.69 24.77 24.76.93 40.12-.76 46.55-5.1 3.44-2.33 19.32-16.73 24.87-22.57 3.04-3.19 3.1-3.1 2.8 4.3-.4 9.83-.67 10.44-7.85 17.69-4.85 4.9-10.43 8.85-18.21 12.9-2.64 1.37-4.66 2.5-4.48 2.5 2.88.1 17.43-9.65 23.4-15.67 7.11-7.17 7.72-8.69 7.72-19.49v-5.67l2.06-1.96c4.02-3.83 3.22-3.79 7.59-.43 10.58 8.12 20.55 20.21 27.13 32.88 1.5 2.9 2.82 5.28 2.93 5.28.47 0-5.76-11.45-8.36-15.35-5.48-8.22-13.65-17.1-21.1-22.9-1.98-1.56-3.6-3.06-3.6-3.34s1.62-2.05 3.6-3.93c7.8-7.38 10.52-11.14 12.24-16.94.63-2.14 3.2-13.21 3.49-15 .1-.7.46-2.55.78-4.13.32-1.59.69-3.7.8-4.7.12-.99.3-2.33.42-2.97.26-1.5.6-3.76 1.16-7.81.2-1.45.44-4.1.6-6.45.03-.54.21-2.3.4-3.9 1.9-16.05 1.96-33.7.12-34.16a6.77 6.77 0 0 1-2.08-1.22l-1.19-1-1.16 2.5a45.6 45.6 0 0 0-2.2 6.56c-7.82 31.06-13.38 41.1-31.12 56.12-4.16 3.53-4.06 3.54-4.34-.58-.8-12.04-5.28-15.32-27.84-20.4-17.93-4.04-33.52-3.81-55.04.81-19.95 4.3-24.82 8.17-24.82 19.77 0 3.5-.1 3.52-3.9.47-18.07-14.48-24.43-26-32.42-58.68-2.09-8.54-3.32-12.38-3.97-12.38-.21 0-.28.33-.15.73m100.3 60.59a269.4 269.4 0 0 0 26 2.73c7.71.41 8.7.64 9.4 2.17 2.08 4.59-1.55 24.73-5.49 30.34-.4.58-2.65 2.21-4.98 3.62-12.37 7.46-14.53 6.96-17.36-3.97-2.2-8.48-1.63-8.13-13.52-8.11-12.17.02-12.02-.07-13.8 7.83-2.26 10.06-4.32 11.35-11.9 7.47-7.8-3.99-10.22-5.76-11.6-8.48-3.45-6.8-5.95-24.36-3.99-28.03 1.17-2.17 1.75-2.33 9.84-2.6 8.62-.29 16.28-1.09 24.8-2.59 7.56-1.33 6.89-1.3 12.6-.38m-91.93 58.11c-8.11 8.29-12.93 15.05-18.53 26.02l-2.37 4.63-7.4 3.03-71.85 30.18c-.22.2.3.08 1.17-.28l3.32-1.37a4919.88 4919.88 0 0 1 67.26-28.03l8.08-3.3.64-1.62c3.43-8.64 12.44-21.62 20.46-29.46 2.47-2.41 4.31-4.39 4.1-4.39s-2.4 2.06-4.88 4.59m192.62 30.73c.54.3 6.34 2.68 12.9 5.3a10947.5 10947.5 0 0 1 67.7 27.32c1.88.8 3.33 1.1 2.2.44-.58-.34-7.5-3.15-38.27-15.52l-29.95-12.07c-13.91-5.62-17-6.78-14.58-5.47m-149.22 1.2c0 .26 5.52 3.02 5.7 2.84.07-.08-1.18-.79-2.78-1.58-1.6-.8-2.92-1.36-2.92-1.26m6.75 3.32c.9.57 5.05 2 5.25 1.8.13-.13-.9-.52-5.16-1.98-.71-.24-.72-.22-.1.18m66.9 1.05c-2.5 1.04-3.38 1.59-1.76 1.1 1.37-.42 4.96-2.08 4.49-2.08-.22 0-1.45.44-2.74.98m-59.96 1.5a8.3 8.3 0 0 0 1.96.52c.32 0-.03-.24-.78-.53a7.89 7.89 0 0 0-1.96-.52c-.32 0 .03.23.78.52m4.27 1.2c.95.3 2.36.64 3.13.75.76.1.16-.15-1.34-.58-3.1-.87-4.42-.99-1.79-.16m47.69-.03c-.97.27-1.41.5-.98.51.43 0 1.48-.22 2.34-.5 2.03-.67.93-.68-1.36-.01m-8.1 1.63c.37.1.98.1 1.36 0 .37-.1.07-.18-.69-.18-.75 0-1.05.08-.68.18m-29.2.54c.86.17 2.1.3 2.74.3.88-.03.73-.11-.59-.35-2.36-.42-4.2-.38-2.15.05m26.47-.15c.37.1.99.1 1.36 0 .38-.1.07-.18-.68-.18s-1.06.08-.68.18m-3.32.4c.48.1 1.27.1 1.75 0 .49-.1.1-.17-.88-.17-.96 0-1.36.08-.87.17m-14.46.4a184.41 184.41 0 0 0 8.8 0c2.4-.06.43-.12-4.4-.12-4.84 0-6.81.06-4.4.13"/><path fill="#ebbc8e" d="M227.66 103.92c-5.92.37-9.6 1.22-14.72 3.37-11.9 5-13.64 5.47-21.57 5.85-8.9.43-17.73-.87-33.75-4.96-19.43-4.96-26.97-2.63-36.06 11.16-6.03 9.13-6.44 10.86-6.6 27.88l-.12 13.82-1.54 4.93c-7.13 22.87-7.39 24.18-7.47 37.74l-.07 9.77 1.6 5.47c.87 3 2.03 7.4 2.59 9.76 7.11 30.3 13.86 43 29.9 56.35l4.88 4.07.3-3.06c1.17-11.88 5.4-15.13 25.28-19.44 7.53-1.63 17-3.14 22.27-3.56l3.7-.3-3.7-1.24c-10.74-3.6-10.3-4.1 3.42-4.1 18.04 0 19.6.29 13.93 2.65l-4.66 2-1.56.72 2.15.21 6.99.64c11.75 1.03 30.75 6.44 36.02 10.25 2.54 1.84 5.43 9.3 5.43 14.03 0 1.5.07 1.48 3.25-1.11 10.24-8.34 18.38-18.92 23.1-29.98 2.5-5.85 7.12-22.37 10.37-37.11a59.56 59.56 0 0 1 1.69-6.45c.37-.74.42-3.85.22-13.09-.31-14.58-.22-14.1-6.7-33.98l-2.16-6.64-.2-13.67c-.3-20.18-2.66-27.2-12.82-38.02l-2.6-2.75-1.86.56c-2.64.8-5.24.7-12.32-.42a156.2 156.2 0 0 0-12.74-1.36c-7.11-.41-7.13-.41-13.87.01m-60.84 70.7c11.32 1.28 13.75 3.24 11.9 9.59-1.67 5.73-1.63 5.72-14.33 3.53-21.86-3.77-26.06-3.6-36.11 1.4-10.12 5.04-10 1.47.3-9.13 4.23-4.36 6.85-5.65 12.83-6.35 3.16-.37 19.06.23 25.41.95m94.31-.02c3.85 1.25 6.35 3.05 10.23 7.39 7.88 8.81 8 12.31.26 7.87a76.6 76.6 0 0 0-6.35-3.22l-2.96-1.28-6.65.06c-7.68.06-13.9.78-23.5 2.68-8.22 1.64-7.93 1.63-9.21.29-3.67-3.83-3.63-10.09.08-12 4.77-2.47 32.04-3.75 38.1-1.78M90.1 194.34c-.27.7-1.8.79-1.8.1 0-1.85-4 4.9-4.94 8.35-.95 3.47-.95 16.14-.01 21.43 3.2 17.93 7.63 28.97 13.46 33.52 1.68 1.3 5.9 3.36 6.24 3.03.12-.13-.07-3.17-.44-6.77a326.5 326.5 0 0 1-1.43-27.35c0-4.47-.15-6.03-.75-7.81a407.8 407.8 0 0 1-4.91-17.08c-1.12-4.24-2.3-7.22-3.05-7.7-.79-.5-2.13-.34-2.37.28m220.6.36c-.16.43-.66.51-2.1.34-3.84-.45-4.5.28-5.9 6.6-2.05 9.27-2.82 12.45-3.7 15.4-.8 2.65-1 4.3-1.17 9.77-.39 12.48-1.3 28.47-1.79 31.28-.26 1.55-.4 2.9-.3 3 .75.76 7.2-2.4 7.73-3.77.08-.2.66-.95 1.28-1.66 5.87-6.69 11.02-25.86 11.06-41.2l.02-8.4-1.7-4.7a58.75 58.75 0 0 1-1.9-5.95c-.2-1.31-1.13-1.74-1.52-.7m-154.6 1.96a9.1 9.1 0 0 1 3.01 2.23c7.54 9.88-5.27 21.8-14 13.03-7.84-7.86.79-19.84 10.99-15.26m95.32.3c4.83 3.23 6.17 8.97 3.15 13.46-6.09 9.04-20.01 2.95-17.47-7.64 1.44-6.02 9.27-9.2 14.32-5.82m-54.94 81.19c-9.9 1.78-21.43 3.09-27.8 3.15l-6.38.07 4.5.27c2.47.15 7.3.55 10.74.89 17.8 1.76 32.9 1.7 47.07-.15 5.33-.7 13.67-1.02 13.67-.52 0 1.3-5.63 7-10.55 10.68-19.4 14.5-45.64 12.45-62-4.82-3.98-4.21-4.86-5.56-4-6.1.46-.3.4-.37-.27-.37-3.32-.03-4.08 6.4-2.1 17.76 2.14 12.38 3.62 14.47 13.92 19.78 8.26 4.26 9.63 3.49 12.07-6.83 1.82-7.72 1.46-7.48 12.9-8.26 3.85-.26 10.38.38 11.92 1.18 1.49.77 2.02 1.88 3.24 6.75 2.42 9.7 4.15 10.95 10.81 7.77 7.12-3.4 10.53-5.98 11.93-9.02 2.8-6.07 4.6-14.67 4.64-22.2.04-7.14.44-6.84-9.95-7.33-9.17-.42-24.74-2.16-29.67-3.3-.32-.08-2.43.19-4.69.6m65.45 69.08c-.53.6-.62.94-.32 1.25.3.3.55.18.88-.42.66-1.24.3-1.77-.56-.82"/><path fill="#657484" d="M148.55 197.06c-6.46 2.8-7.34 11.45-1.56 15.32 9.13 6.12 18.55-6.59 10.27-13.86-2.24-1.97-6.06-2.61-8.71-1.46m94.9 0c-8.33 3.63-7.25 14.87 1.6 16.69 4.14.85 8.64-1.97 9.86-6.18 1.9-6.53-5.33-13.16-11.46-10.5M133.8 355.17"/><path fill="#201814" d="M133.8 355.18c-4.49 9.6-8.26 27.75-6.38 30.76.75 1.21.84 1.83.74 5.55a57 57 0 0 0 .18 6.34l.27 2.17h140.02l.25-3.22a100 100 0 0 0 .26-6.5c0-2.64.16-3.53.82-4.6 1.22-1.97 1.1-3.39-.97-12.83-2.66-12.08-5.64-21.29-6.89-21.29-.16 0-1.39 1.19-2.73 2.64-29.04 31.37-88.55 32.47-118.66 2.19a86.24 86.24 0 0 0-5.01-4.83c-.11 0-.97 1.63-1.9 3.62"/><path fill="#dba880" d="M185.94 9.77c0 .23 1.63.39 4.1.39s4.1-.16 4.1-.4c0-.23-1.63-.38-4.1-.38s-4.1.15-4.1.39m81.83 26.17a36 36 0 0 1 1.27 1.53c.06.09.19.08.29-.03.1-.1-.47-.8-1.27-1.53l-1.46-1.34 1.17 1.37m-150.39 7.34l-1.17 1.44 1.66-1.3c1.76-1.38 1.96-1.64 1.17-1.6-.27.02-1.01.68-1.66 1.46m-7.16 6.78c-2.01 1.93-3.56 3.61-3.43 3.73.12.13 1.8-1.42 3.72-3.43 4.45-4.65 4.35-4.75-.3-.3M99.87 63.14c-.37.77-.59 1.5-.49 1.6s.47-.47.8-1.28c.8-1.9.56-2.15-.31-.32m124.7 40.4c-4.74.42-7.07 1.1-14.4 4.2-15.34 6.5-26.07 6.6-50.2.46-20.63-5.24-25.01-4.63-34.02 4.78-9.69 10.1-11.63 15.87-11.7 34.69l-.06 13.49-1.2 3.7-3.4 11.12-2.57 8.59c-1.32 4.35-1.98 10.76-1.94 18.95v9c-.03.34.66 2.98 1.53 5.86a261.9 261.9 0 0 1 3.14 11.79c7.34 30.67 14.26 43.03 32.06 57.3 3.8 3.05 3.9 3.04 3.9-.47 0-11.6 4.87-15.48 24.82-19.77 21.52-4.62 37.1-4.85 55.04-.81 22.56 5.08 27.04 8.36 27.84 20.4.28 4.12.18 4.1 4.34.58 19.27-16.32 24.1-26 34.08-68.26.69-2.9 1.46-5.71 1.7-6.25.35-.72.4-3.9.18-12.1-.36-14.3-.5-14.98-7-34.58l-2.07-6.25-.27-14.45c-.33-17.37-.56-18.55-5.3-27.52-2.37-4.47-3.28-5.75-7.32-10.27-2.95-3.3-2.99-3.32-6.51-2.41-2.6.66-3.45.61-10.74-.65-8.14-1.4-21.23-1.9-29.92-1.13m16.96.38c3.6.2 9.34.82 12.74 1.36 7.08 1.12 9.68 1.21 12.32.42l1.87-.56 2.59 2.75c10.16 10.82 12.52 17.84 12.82 38.02l.2 13.67 2.16 6.64c6.48 19.89 6.39 19.4 6.7 33.98.2 9.24.15 12.35-.22 13.1-.26.53-1.02 3.43-1.69 6.44-3.25 14.74-7.87 31.26-10.37 37.11-4.71 11.06-12.86 21.64-23.1 29.98-3.18 2.6-3.25 2.62-3.25 1.11 0-4.72-2.9-12.19-5.43-14.03-5.27-3.81-24.28-9.22-36.02-10.25l-7-.64-2.14-.21 1.56-.72c.86-.4 2.96-1.3 4.66-2 5.67-2.36 4.1-2.66-13.93-2.66-13.73 0-14.16.51-3.42 4.11l3.7 1.24-3.7.3c-5.26.42-14.74 1.94-22.27 3.56-19.87 4.3-24.11 7.56-25.28 19.44l-.3 3.06-4.89-4.07c-16.03-13.34-22.78-26.05-29.89-56.35a239.17 239.17 0 0 0-2.6-9.77l-1.59-5.46.06-9.77c.1-13.56.35-14.87 7.48-37.74l1.54-4.93.12-13.82c.16-17.02.57-18.75 6.6-27.88 9.1-13.79 16.63-16.12 36.06-11.16 16.02 4.1 24.84 5.39 33.75 4.96 7.93-.38 9.66-.85 21.57-5.85 5.13-2.15 8.8-3 14.72-3.37 6.74-.42 6.76-.42 13.87-.01m74.49 11.1c0 .32.17.68.39.81.21.13.39-.12.39-.56 0-.45-.18-.8-.4-.8-.2 0-.38.25-.38.56m.4 12.42c0 .7.17 1.53.38 1.86.27.42.38.07.38-1.27 0-1.02-.17-1.86-.38-1.86-.22 0-.4.57-.39 1.27m.23 18.88c-.36.95-.28 2.12.16 2.12.21 0 .39-.62.39-1.37 0-1.48-.17-1.72-.55-.75m-.42 10.83c-.16.38-.2.8-.06.94.4.4.72-.16.54-.93-.16-.68-.19-.68-.48-.01m-174.81 16.51c-5.98.7-8.6 2-12.84 6.35-10.3 10.6-10.41 14.17-.3 9.13 10.06-5 14.26-5.16 36.12-1.4 11.27 1.95 11.59 1.95 12.83 0 3.17-4.94 2.31-10.15-1.94-11.74-3.69-1.38-27.8-3.04-33.87-2.34m98.43.18c-6.19.45-15.5 1.86-16.81 2.54-3.7 1.91-3.75 8.17-.08 12 1.28 1.34 1 1.35 9.2-.29 9.61-1.9 15.83-2.62 23.51-2.68l6.65-.06 2.96 1.28a76.6 76.6 0 0 1 6.35 3.22c7.74 4.44 7.62.94-.26-7.87-7.14-7.97-13.02-9.5-31.52-8.14m-71.7 1.52c6.85.93 8.54 1.51 9.64 3.32 1.38 2.26.4 7.52-1.76 9.56l-.92.86-4.35-.8c-27.93-5.16-32.23-5.11-43 .42-8.02 4.12-8.33 2.78-1.28-5.53 4.6-5.42 7.75-7.62 12.27-8.58 3.21-.67 22.54-.18 29.4.75m91.74-.53c5.2 1.35 11.06 6.33 15.57 13.23 2.57 3.93 1.7 3.96-5.74.21-4.12-2.07-7.02-3.28-8.54-3.55-4.47-.8-19.15.7-30.9 3.16-6.93 1.44-9.01.13-9.46-5.98-.32-4.33 1.18-5.28 10.25-6.47 10.57-1.4 24.63-1.68 28.82-.6m-171.06 18.4c-1.05.22-2.82 2.4-4.36 5.4-3.79 7.41-2.96 23.77 2.1 41.35 1.54 5.33 2.7 8.2 4.85 11.95 2.8 4.9 8.51 9.4 11.94 9.4.69 0 .69.05-.02-5.68-.72-5.92-1.28-15.13-1.6-26.35-.26-8.73-.27-8.83-1.74-13.68a329.9 329.9 0 0 1-2.9-10.35c-3.19-12.25-3.66-12.94-8.27-12.03m217.63.28c-2.72 1.21-3.25 2.34-5.12 10.96-.75 3.45-1.95 8.46-2.67 11.15-1.24 4.63-1.32 5.33-1.57 13.86-.29 9.9-1.2 25.03-1.78 29.3l-.38 2.98c-.02.5 5.15-1.17 6.65-2.16 7.63-5.05 14.58-26.65 14.6-45.35l.01-8.6-1.45-4.1-2.05-5.66c-1.38-3.56-.2.91 1.44 5.47l1.69 4.69-.02 8.4c-.04 15.34-5.19 34.51-11.06 41.2a11.1 11.1 0 0 0-1.28 1.66c-.53 1.38-6.98 4.53-7.73 3.78-.1-.1.04-1.46.3-3 .49-2.82 1.4-18.8 1.8-31.29.16-5.47.36-7.13 1.15-9.76.9-2.96 1.66-6.14 3.72-15.42 1.4-6.31 2.05-7.04 5.9-6.59 1.43.17 1.93.1 2.1-.34.12-.3.51-.56.88-.56 1.23 0 .23-.44-1.29-.57a10.5 10.5 0 0 1-2.09-.35c-.32-.12-1.11.01-1.75.3m-213.98.54c.74.48 1.92 3.46 3.04 7.7a418.7 418.7 0 0 0 4.91 17.08c.6 1.78.75 3.34.75 7.8 0 7.53.63 19.4 1.43 27.36.77 7.6.87 7.3-2.07 5.93-6.34-2.96-10.1-8.56-13.74-20.48-.41-1.35-1.65-6.38-2.4-9.76-2.7-12.22-2.44-25.58.63-31.2 1.15-2.11 3.26-4.73 3.26-4.04 0 .68 1.55.58 1.81-.11.24-.63 1.58-.78 2.38-.28m53.35 3.78c-3.36 3.04-4.58 6.84-3.27 10.17.17.43.22-.54.12-2.17-.21-3.4.45-5.16 2.7-7.23 2.02-1.84 2.58-2.2 3.95-2.53l1.27-.3-1.2-.04c-.94-.03-1.73.43-3.57 2.1m96.9-1.57c-2.63 1.14-6 5.17-5.5 6.58.09.26.29-.08.44-.75 1.75-7.8 13.96-8.03 17.47-.34.4.86.72 1.27.72.92.06-4.41-8.32-8.5-13.13-6.41m-86.47.83a8.99 8.99 0 0 1 4.67 6.54c.25 1.26.33 1.38.37.55.1-2.45-2.21-6.07-4.66-7.32-2.18-1.11-2.46-.95-.38.23m80.58 8.17c0 1.08.08 1.47.17.88a7 7 0 0 0 0-1.96c-.1-.48-.17 0-.17 1.08m19.14 0c0 1.08.08 1.47.17.88a7 7 0 0 0 0-1.96c-.1-.48-.17 0-.17 1.08M161 206.75c-.15 2.66-3.8 6.95-6.44 7.54-.68.16-1.05.35-.81.43 2.2.77 7.88-5.32 7.46-8.01l-.16-1.05-.05 1.1m94.13 2.02c-.6 1.68-2.63 3.8-4.65 4.87-.8.42-1.26.78-1.01.79 1.7.06 6.78-5.27 6.32-6.63-.08-.24-.37.2-.66.97m-112.16.53c0 .64 4.08 4.75 4.72 4.75.26 0-.24-.52-1.12-1.15a12.86 12.86 0 0 1-2.6-2.63c-.55-.81-1-1.25-1-.97m95.27 1.1c1.2 2.43 5.09 4.44 8.44 4.37l2.34-.05-2.76-.26c-3.14-.29-5.7-1.54-7.4-3.63-.57-.7-.85-.9-.62-.43m-45.27 67.7c-8.53 1.5-16.2 2.3-24.8 2.6-8.1.26-8.68.42-9.85 2.6-1.96 3.66.54 21.22 4 28.02 1.37 2.72 3.8 4.49 11.59 8.48 7.58 3.88 9.64 2.59 11.9-7.47 1.78-7.9 1.63-7.81 13.8-7.83 11.9-.02 11.32-.37 13.52 8.11 2.84 10.93 4.99 11.43 17.36 3.97 2.33-1.4 4.58-3.03 4.98-3.62 3.94-5.61 7.57-25.75 5.48-30.34-.7-1.53-1.68-1.76-9.4-2.17a269.4 269.4 0 0 1-26-2.73c-5.7-.93-5.03-.95-12.58.38m11.13 0c5.44.98 19.32 2.41 26.74 2.75 10.4.49 10 .19 9.95 7.33-.04 7.53-1.83 16.13-4.64 22.2-1.4 3.04-4.8 5.62-11.93 9.02-6.66 3.18-8.39 1.94-10.81-7.77-1.22-4.87-1.75-5.98-3.24-6.75-1.54-.8-8.07-1.44-11.93-1.18-11.43.78-11.07.54-12.9 8.26-2.43 10.32-3.8 11.1-12.06 6.83-8.83-4.55-9.98-5.67-11.94-11.57-3.17-9.54-4.04-22.04-1.72-24.8l1-1.18h7.21c7.34 0 17.67-1.12 28.65-3.1a30.5 30.5 0 0 1 4.7-.6c.31.08 1.63.33 2.92.56m-70.54 53.43c-.96 8.21.54 16.06 3.84 20.09 26.75 32.68 88.96 34.8 119.38 4.07 7.2-7.27 7.47-7.88 7.87-17.71.3-7.4.24-7.49-2.8-4.3-5.55 5.84-21.43 20.24-24.87 22.57-6.43 4.34-21.8 6.03-46.55 5.1-26.38-.98-24.48-.06-50.64-24.72-5.51-5.2-6.16-5.73-6.23-5.1m128.93 16.53c-.33.6-.57.72-.88.42-.3-.3-.21-.66.32-1.25.86-.94 1.22-.41.56.83"/><path fill="#f6f7f7" d="M161.6 281.71c-.71.44.42 2.1 4.13 6.02 16.36 17.27 42.6 19.32 62 4.82 4.93-3.68 10.55-9.38 10.55-10.68 0-.5-8.34-.18-13.67.52-14.16 1.86-29.21 1.9-47.07.15-8.02-.79-15.39-1.17-15.94-.83"/><path fill="#635d39" d="M148.58 196.66c-2.6 1.13-5.66 4.62-5.58 6.35.02.39.21.1.42-.62.96-3.35 5.45-6.16 9.27-5.8 1.34.13 1.89.08 1.41-.12-1.21-.5-4.16-.4-5.52.19m94.58.14c-3.96 1.87-5.67 4.52-5.6 8.67l.06 2.54.25-2.95c.85-10.17 13.4-11.7 17.06-2.08l.57 1.51-.2-1.32c-.8-4.9-7.63-8.5-12.14-6.37m-87.5.53c2.58 1.42 4.32 4.16 4.89 7.67l.36 2.23-.15-2.24c-.24-3.55-3.36-8.17-5.48-8.1-.22 0-.05.2.38.44m-13 7.75c0 .75.09 1.06.19.68.1-.37.1-.99 0-1.36-.1-.38-.18-.07-.18.68m112.13 2.81c-1.84 6.9-12.17 8.02-15.94 1.72-.53-.88-.96-1.4-.97-1.17-.02 3.1 6.9 6.74 10.78 5.67 3.27-.9 7.16-5.14 6.73-7.33-.07-.36-.34.14-.6 1.11m-111.81-.75c-.1 4.22 6.92 8.44 11.51 6.92 2.45-.8 6.05-4.57 6.05-6.33 0-.27-.37.24-.82 1.15a8.71 8.71 0 0 1-16.18-.9c-.3-.84-.56-1.22-.56-.84m125.03 120.44-2.79 2.57v5.73c0 10.85-.6 12.36-7.72 19.53-31.02 31.24-91.67 29.74-119.91-2.97-3.92-4.53-4.23-5.56-4.57-14.94l-.25-6.84-2.6-2.63c-3.22-3.24-3.15-3.24-7.39.04-11.39 8.83-24.15 25.21-28.84 37.03l-.64 1.62-8.08 3.31a4947.24 4947.24 0 0 0-70 29.19c-1.75.75-1.5.75 55.67.77l57.42.01-.07-6.4c-.07-5.69-.17-6.55-.88-7.71-1.17-1.92-1.03-3.85.94-12.6 2.41-10.7 6.16-21.73 7.39-21.73.11 0 2.37 2.18 5 4.83 30.12 30.28 89.63 29.18 118.67-2.2 1.34-1.44 2.57-2.63 2.73-2.63 1.25 0 4.23 9.2 6.9 21.3 2.05 9.36 2.17 10.84 1.01 12.77-.65 1.09-.8 2.28-1.01 7.83l-.25 6.54 59.87-.03 59.86-.03-1.76-.78a8133.5 8133.5 0 0 0-66.6-26.88 785.14 785.14 0 0 1-13.18-5.38l-2.25-.99-2.7-5.22c-6.55-12.6-16.55-24.72-27.06-32.79-4.51-3.46-3.57-3.42-6.91-.32"/></g></svg>
